<svg id="Calque_1" data-name="Calque 1" xmlns="http://www.w3.org/2000/svg" viewBox="0 0 812.38 866.46">
  <g>
    <path d="M679.28,609.61c17.62,1,32.65,3.68,46.32,12.64l-66.06,25.38c9.26,18.88,12.21,37,10.68,57.53,3.42-2.37,5.65-3.85,7.81-5.44,15.17-11.15,29.91-23,45.58-33.35,25.58-16.94,53.59-22.57,83.61-14.28,42.09,11.62,63.24,56,45.17,94.29-9.45,20-29.76,32.8-51,31.64-12.19-.66-22.67-5-28.2-16.79-1.35-2.88-2.06-7.6-.58-9.81,1.32-2,6.12-2.36,9.3-2.17,6.3.39,12.6,2.68,18.8,2.35,12.88-.69,23.12-6.56,28-19.17,5.36-13.8,4.18-27-5.93-38.33-13.54-15.17-31.1-19.66-50.66-17.25-15.83,1.95-29.46,9.28-42.29,18.44-19.92,14.2-40,28.17-59.95,42.35a9.58,9.58,0,0,0-3.73,4.73c-4.21,16.4-9.17,32.71-12,49.37-4.08,24.37,11.3,46.33,33.91,49.94,14.33,2.29,26.89-2,35.59-13.85,8.86-12.06,9.62-25.47,2.23-38.58-3.43-6.09-8.26-11.41-12.62-16.94-5.11-6.5-3-13.55,5.33-14a30.31,30.31,0,0,1,17.1,4.5c23.82,15.61,29.41,51.5,12.74,77.67-14.1,22.14-42.91,33.77-69.06,27.87-27.55-6.21-48.6-29.37-51.94-56.76-1.83-15,.18-29.57,3.91-44,.69-2.66,1.26-5.36,2.26-9.67-10.29,3.62-19.38,6.42-28,10.2-1.74.76-2.5,5.26-2.57,8.06-.39,14.83-.13,29.68-.64,44.51-1,29.79-12.19,55.33-33.18,76.5a92.79,92.79,0,0,1-8.68,7.22c-.85.68-2,1-4.54,2.32,6.38-20.53,4.83-38.7-9.23-56.5,0,6.68.48,11.78-.09,16.76-2.79,24.66-16.14,43.25-34.57,58.74-12,10.12-12,10-24.3-.27-22.3-18.65-36.25-41.26-34.35-71.52a17.09,17.09,0,0,0-.67-3.1c-13.91,17.08-16,35.09-10.24,55.42a77.16,77.16,0,0,1-6.4-4.73c-24.89-22.49-38.25-50.29-38.64-84-.16-14.13-.48-28.26-.43-42.39,0-4.43-1.46-7-5.72-8.4-8-2.61-15.8-5.54-25-8.8,1.89,8.17,3.54,14.93,5,21.73,7.16,32.86-3.88,63.58-30.18,79.83-21.34,13.19-44.23,14.61-66.54,2.27-20.89-11.55-32.83-29.54-32.7-54,.08-17,5.81-32.24,19.58-42.81,5-3.85,12.18-5.55,18.63-6.6,2.69-.45,7.36,2.71,8.72,5.43,1.07,2.15-1,6.52-2.68,9.22-2.64,4.13-6.55,7.43-9.3,11.5-12.23,18.14-9.88,37.31,5.86,49.81,14.71,11.68,38.11,9.91,51.54-4.33a42.86,42.86,0,0,0,11.46-37.91c-3-17.1-7.88-33.89-12.1-50.77a7.48,7.48,0,0,0-3-3.61c-20.88-14.91-41.65-30-62.76-44.54-21.75-15-45.1-22.33-71.33-12.62-12.43,4.6-21,13.22-26,25.37-5.32,13.05-2.92,25.19,6.22,35.55,8.35,9.47,19.24,12.13,31.51,9.22a91.75,91.75,0,0,1,11.74-2.46c6.91-.73,10.36,3.51,8,10.08-3.29,9.33-10.3,15-19.54,18-18.84,6-40.7-1.34-53.64-17.84-26-33.13-16-79.45,22.08-99.15,32.36-16.74,64.91-14.42,95.74,3.87C290,673.32,305.61,686,321.94,697.58c2.23,1.58,4.56,3,8.06,5.34-1.27-19.64,1.11-37.34,10.5-55.69l-67.6-25.11c8.51-3.59,15.52-7.43,23-9.46s15.57-2.27,25-3.5c-7.46-7.75-13.6-15.6-21.17-21.62-9.63-7.65-21-8.25-31.89-2.25-5.95,3.26-11.4,7.46-17,11.41-58.68,41.7-139,14.8-156.49-61.47-1.33-5.82-.17-12.21-.17-18.33l2.57-1c2.45,2.84,5.08,5.54,7.32,8.53,14.58,19.46,32.94,33.75,56.77,39.63,25.74,6.35,50.58,3.9,73.3-10.84a282.74,282.74,0,0,0,31.53-23.32c-3,1-6.07,2-9.14,2.84-40,11.42-78.91,9.8-113.5-15.08-35.25-25.35-51.26-60.59-45.38-104.38.94-7.05,4.23-13.78,7.8-20.63,8.57,34,23,62.6,58.07,74.9,18.23,6.4,36.58,4.5,55.22-.71-70.59-35.41-103.45-89-81.5-167.88,8.47-30.43,36.14-59.47,54-60.87-1.45,3.14-2.62,5.81-3.9,8.42-7.41,15-14.71,30.11-15.25,47.35-.68,21.8,5.6,41.32,19.48,58.26a35.15,35.15,0,0,0,4.64,4.31,5.34,5.34,0,0,0,1.87.6c-.71-10.89-1.75-21.6-2-32.32-.12-5.82.94-11.7,1.86-17.48.88-5.58,3.68-5.7,7.74-2.38,7.78,6.37,15.76,12.49,23.37,18.5-2.53-14.53-5.84-28.49-7.19-42.65-1.38-14.46-.21-29,8.48-42.4,9.25,30.73,25.28,56.22,53.76,74.15-1.13-2.39-1.85-3.84-2.52-5.32C250.55,238,251.61,171.2,296.32,107.78a98,98,0,0,1,35.13-31.12,26.91,26.91,0,0,1,9.7-2.56c-42.8,61.22-40.72,125.05-13,190.35,8.57,20.17,22.21,36.71,41.18,51.63-2.09-8.91-3.44-15.77-5.33-22.49-4.2-14.92-3.92-29.76,0-44.64,1.45-5.47,2.82-10.95,4.27-16.41,4.4-16.59,4.55-33-1.7-49.26a33.75,33.75,0,0,1-1.32-4.75c-.08-.36.3-.82.91-2.31,16.07,7.78,27,20.46,33.35,36.28,6.24,15.52,10.17,32,14.63,46.46,2.86-35.89,21.54-72.35,8.36-111.64,23.9,12.77,32.86,35.27,40.13,58.64,3.49-23.84,5.91-47.63,10.68-70.94s12.15-46.33,26.51-68.25c2.76,4.27,5.17,7.28,6.82,10.67,14.4,29.51,22.29,60.93,26.57,93.32,1.45,11.05,2,22.23,3.44,33.51,8.18-22.78,17.84-44.3,40.19-57.26.69,1.42,1.16,1.93,1.05,2.23-8,22-4.92,44-.15,66.11,3.18,14.71,5.88,29.51,8.45,42.52,4.66-14.22,8.93-30.55,15.38-46s16.75-28.47,34.79-35.38a67.13,67.13,0,0,1-1.87,6.57c-6.74,16-8.47,32.63-3.2,49.06,8.41,26.28,9.33,52.18-.1,78.27-.37,1-.19,2.23-.4,5.29,38.86-30.28,53.17-71.25,59.31-116,6.23-45.43-2.52-87.64-31.63-124.63l1.3-1.33a45.2,45.2,0,0,1,6.74,1.84c19.07,8.49,32.33,23.43,43.24,40.45C745,171,746.33,229.36,726.14,289.58c-2.3,6.88-5.53,13.46-7.7,20.62,26.59-16.8,42-41.61,50.83-71.84,13.54,28.5,10.89,56.5-.1,85.65,3.67-2.53,7.4-5,11-7.59,3-2.23,5.8-4.83,8.86-7s6.5-4.15,9.76-6.21c1.4,3.81,3.89,7.58,4,11.43.49,13.79.19,27.61.19,41.65,1.45-1.38,4.15-3.31,6-5.85,17.91-24,24.16-50.29,14.58-79.2-3-8.88-7.58-17.19-11.45-25.76-1-2.23-2-4.45-3.08-6.68l1.66-1.91c4.28,2.39,8.87,4.36,12.8,7.24,18.86,13.78,31,32.44,39.19,54.1,20.85,54.87-4.88,137.06-75.1,163.55-2.4.91-4.73,2-7.24,3.05,12.63,11.05,54.7,8.05,74.37-5.81,22.66-16,32.29-40.1,38.43-66.14l2.19-.09c1.81,4.91,4.31,9.67,5.31,14.73,8.24,41.82-4.1,76.84-36.24,104.51-26.14,22.51-57.28,29.76-91,26.45-12.52-1.22-24.87-4.23-36.09-6.21,51.44,49,115.68,48.21,160.08-10.33,1.56-2.07,4-3.49,6-5.22,1,2.68,2.84,5.39,2.76,8-.79,25.15-11.89,45.87-29.36,63.08-34,33.51-84.82,37.74-124.45,11-6.43-4.34-12.61-9.14-19.35-13-13.43-7.6-27.37-5.58-38.06,5.38C689.82,596.54,685.33,602.48,679.28,609.61Zm-218.6-191c-28.7-9.47-48-38.7-45.82-68.64,1.71-23.08-2.7-44.61-16.59-63.5-3.27-4.45-7.77-8.14-12.2-11.53-1.67-1.27-5.62-1.78-7-.69-1.76,1.4-2.28,4.69-2.74,7.28-.27,1.49.51,3.22,1,4.79,7.76,24.42,7.67,48.31-2.28,72.46-8.76,21.28-5.53,42,7.2,61.25,1.31,2,2.38,4.11,4.29,7.43-3.07-.81-4.41-1.09-5.7-1.51-22.87-7.36-41-21.68-57.31-38.78A119,119,0,0,0,275.48,356c-24.57-8.45-48.71-17.92-67.73-36.71-.43-.42-1.26-.43-2.63-.86-.25,2.78-.82,5.3-.65,7.78.67,9.86.67,19.88,2.56,29.52,5.15,26.29,9.59,52.87,17.21,78.48s23.49,45.76,50.46,54c8,2.44,16.64,3,25,3.77a20.66,20.66,0,0,1,15.39,8.72c5.48,7.23,5.12,15.41,4.16,23.7-1.39,12.09-.69,23.91,3.48,35.5,8.52,23.63,40,46.27,72.43,42.35,3.71-.45,10.19.88,11.05,3.08,1.26,3.22-.25,8.86-2.6,11.91-7,9.1-14.43,18.1-22.82,25.94-22,20.54-27.72,45.59-22.31,74.13.4,2.15,1.3,5.14,2.9,6,5.86,3.07,12.11,5.4,20.14,8.83-7.35-18.59-8.36-34.67,3.09-50.27,6.13,5.17,9.32,9.81,8.84,17.5-1.91,30.5,18.85,52.45,49.47,51.06,11.17-.51,22.49-4.58,33.1-8.7,16.28-6.31,32-6.91,48,.22a133.06,133.06,0,0,0,16.42,6.44c34.88,10.26,68.24-12.85,66.23-49.17-.24-4.27,2.11-8.92,4.09-13,2.42-5,5.53-4.31,8.13.23,6,10.39,6.62,21.41,3.9,32.82-.89,3.72-1.93,7.42-3.18,12.17,3.12-1.15,4.89-1.72,6.58-2.44,3.68-1.58,7.6-2.82,10.88-5a10.82,10.82,0,0,0,4.44-6.4c4.86-30-.62-56.76-25.46-77a40,40,0,0,1-5-5c-5.67-6.61-11.61-13-16.71-20.06-1.79-2.48-2.89-7.24-1.67-9.6,1.15-2.2,5.7-3.25,8.89-3.61,4.64-.52,9.41.28,14.11.1,30.18-1.18,67.95-26.52,65.58-69.28-.28-4.94-.83-9.86-1.1-14.79-.81-15,7.55-25.12,22.34-26.06,26.3-1.69,48-11.54,62-34.67a130.48,130.48,0,0,0,12.62-26.72c10.41-31.93,15.45-65,18.22-98.37.39-4.73.06-9.52.06-14.28-20.82,19.29-45.22,29.62-70.54,38.13-19.45,6.54-35.58,17.95-50,32.28-15.46,15.38-32.18,29.05-53.09,36.58-2.24.8-4.53,1.46-6.94,2.24a8.09,8.09,0,0,1-.25-1.77,6.62,6.62,0,0,1,.7-2c16.36-23.31,17.69-47.89,6.53-73.69-6.7-15.49-6.91-31.58-3.26-47.82,1.55-6.89,3.68-13.66,4.94-20.59.39-2.14-.53-5.56-2.09-6.71s-5.34-1.1-7,.07c-4.51,3.27-9.08,6.88-12.42,11.27-12.73,16.78-17.73,36-17.23,57,.23,9.59.37,19.48-1.62,28.77-4.61,21.45-20.39,34.23-38.08,45-1.45.88-3.17,1.31-6.62,2.69,1.68-3.81,2.78-5.79,3.43-7.9,3.57-11.65,8.17-23.12,10.27-35,4-22.46,6.58-45.17,9.51-67.8A109.23,109.23,0,0,0,556.08,256c-1.42,2.58-2.39,4.36-3.37,6.13-12.33,22.22-18,46.34-20.88,71.37-2.58,22.39-11,42.24-27.1,58.49-2.85,2.87-5.06,4.6-8.56.71C483.84,379,473.85,364,470.36,345.56c-2.8-14.8-4.93-29.72-7.87-44.49-3.18-16-9.9-30.58-18.89-45.26-5.86,19.78-8.48,38.69-5.31,58.14,2.19,13.47,4.76,26.9,6.33,40.44,2.47,21.33,4.1,42.77,16,61.61C460.94,416.47,460.68,417.29,460.68,418.64Zm87.24,370.83c-32-30.46-64-30.69-96.28-.19-1.19-4.95-1.94-8-2.76-11.4l-27.12-2.16c.58,5.62.75,9.84,1.48,14,3.07,17.38,15.52,28.22,33.05,27.37,7.54-.37,15.3-2.66,22.33-5.59,14.54-6.08,28.64-6.52,43.08-.12a78.11,78.11,0,0,0,14,4.69c26.19,6.1,45.68-12.61,41.17-39.85-6.24.43-12.53,1.15-18.83,1.22-4.62.05-7.81.93-7.92,6.38C550.13,785.08,549.19,786.35,547.92,789.47Z" transform="translate(-93.81 -66.77)"/>
    <path d="M770.72,360.62c-1.23,4.61-1.75,7.22-2.61,9.71-6.25,18-12.48,36-18.89,53.94-7.62,21.33-23.57,33.16-46.14,39.71l7.39-22.62-1.27-1c-4.79,4.22-9.54,8.49-14.38,12.65-15.7,13.5-31.31,27.11-47.23,40.33-4.07,3.38-4.93,6.21-3.33,11.31,6,19.26,2,36.46-12.89,50.29-13,12.06-28.67,15.12-45.28,9.45-6.44-2.2-11.85-7.35-17.86-10.93-2-1.2-4.82-2.94-6.56-2.35-25.87,8.84-43.82-16.48-42.41-37.6.81-12.06,5.77-22.19,14-30.81,9.59-10,21.17-16.94,35.27-23.1-2.92,11.51-5.5,21.72-8.08,31.93,20.54-19.81,42.43-36.62,71.28-46.18-1.21,8.63-2.27,16.28-3.54,25.39,2.76-2.07,4.82-3.33,6.55-4.95,15.32-14.27,30.78-28.41,45.81-43,13.48-13.07,28.78-23.16,45.32-32,13.57-7.26,25.86-16.92,38.7-25.55C766.09,364.27,767.46,363.1,770.72,360.62ZM617.44,510.51,583,537.45c10.46,9.37,23.64,9.33,32.76.89C623.69,531,624.71,519.49,617.44,510.51Z" transform="translate(-93.81 -66.77)"/>
    <path d="M288.89,442.1c2.77,6.64,5.54,13.27,8.55,20.5-1.64.12-2.8.52-3.72.22-16.42-5.4-31.22-13.86-38.17-30.19-9.39-22-16.85-44.88-25.09-67.39-.21-.57.09-1.34.24-2.83l4.75,3c13.4,8.65,26.33,18.18,40.32,25.73a200.16,200.16,0,0,1,43,31.69c15.7,14.91,31.72,29.49,47.63,44.18,1.67,1.54,3.55,2.87,6.13,4.93-1.55-9.19-2.91-17.3-4.58-27.23,29.19,9.63,51,26.5,71.74,46.43-2.65-9.95-5.3-19.9-8.07-30.33,1.48,0,2.45-.28,3.13,0,12.93,6,24.88,13.64,34.05,24.67,12,14.38,15,30.76,7.5,48.16-6.71,15.52-20.71,21.66-37.12,17.79a10.15,10.15,0,0,0-7.91,1.94c-16.75,15.1-36.32,17.89-54.5,7.33s-27.85-32.14-22.12-52.6c2.28-8.15.54-12.45-5.81-17.62-17.71-14.38-34.71-29.65-52-44.54-2.09-1.79-4.31-3.42-6.48-5.13Zm93.74,68c-6.12,6.43-6,13.15-3.51,20.11,3,8.22,8.88,13.24,17.7,14.19,7.6.81,14.42-.58,19-8.31Z" transform="translate(-93.81 -66.77)"/>
    <path d="M518.69,678.72c-2.93-17.59-.26-33,13.9-44.32,12.54-10,26.64-12.68,41.64-6.21A33.27,33.27,0,0,1,592.74,668a75.15,75.15,0,0,1-3.13,7.37C579,664.58,567.74,657.48,552.87,659,538.65,660.54,528.59,669.14,518.69,678.72Z" transform="translate(-93.81 -66.77)"/>
    <path d="M480.48,679.25C471,668.81,461.13,660,446.72,659s-26,4.84-35.86,16.13c-6-8.16-6.45-16.39-4.36-24.68,6.15-24.37,38.81-33.69,59.86-16.94,13.47,10.72,17.92,25.35,16.05,42.12C482.3,676.6,481.42,677.53,480.48,679.25Z" transform="translate(-93.81 -66.77)"/>
    <path d="M445.2,723.43c-10.91.11-19.65-7.92-19.59-18,.05-9.63,8.37-17.6,18.4-17.62,10.92,0,20.1,8.44,20.15,18.58C464.21,715.59,455.61,723.32,445.2,723.43Z" transform="translate(-93.81 -66.77)"/>
    <path d="M554.12,723.28c-10.39-.13-18.69-8-18.44-17.45.26-9.69,9.6-18.43,19.73-18.46,9.87,0,18.92,8.75,18.84,18.28C574.17,715.45,565.07,723.42,554.12,723.28Z" transform="translate(-93.81 -66.77)"/>
  </g>
</svg>
