<svg id="Calque_1" data-name="Calque 1" xmlns="http://www.w3.org/2000/svg" viewBox="0 0 612.27 965.89">
  <g>
    <path d="M407.62,371.56c0-10-.35-19.85.06-29.7,3.28-79.58,9.87-158.76,30.07-236.18,5.95-22.81,12.9-45.36,25-65.78a95.35,95.35,0,0,1,15.82-20.42c10.71-10.18,24-10.12,35.94-1.43C527.34,27.35,534,41,540,54.84c16.22,37.33,24.6,76.85,31.17,116.72C581.66,235,586.32,299,587.08,363.21c0,2.9,0,5.79,0,8.94,13.56.75,26.16,1,38.67,2.19,57.79,5.34,115.07,13.8,171.35,28.38,5,1.29,6.79,3,6.78,8.33q-.17,180.27.12,360.54c0,13.28-6.13,23.11-14.47,32.3-25.12,27.65-53.6,51.43-84.21,72.68-60.61,42.06-126.41,73.82-195.61,99-10.15,3.7-18.75,1.67-27.92-1.53-55-19.15-106.85-44.7-156.29-75.36-41.83-26-81.45-54.59-115.18-90.85-12.4-13.33-18.71-27.64-18.59-46.59.75-116.22.52-232.44.34-348.66,0-6.93,1.8-9.47,8.76-11.16,66.19-16.07,133.38-24.86,201.27-29C403.52,372.37,404.92,372,407.62,371.56ZM499.11,83.19l-3,.11c-3.19,8.49-6.85,16.84-9.49,25.5C473.48,151.9,467,196.33,463.05,241c-6,69.07-10.28,138.3-15.29,207.46-.19,2.62-.49,5.23-.77,8.1-72.09.8-143-6.47-214.69-12.1,0,21.88.29,42.65-.16,63.4-.14,6.57,2.08,9.39,8.11,11.77,58.4,23.11,119.52,33.5,181.62,39.44,8.07.77,16.14,1.5,24.13,2.24.25,1.78.45,2.75.5,3.72Q454.74,722,463,878.94c.14,2.57.55,5.9,2.18,7.5,11.08,10.87,22.53,21.38,34,32.1,5-4.87,10.62-11.13,17-16.58,12-10.23,16.74-22.4,17.44-38.58,3.46-79.94,8.34-159.82,12.61-239.73,1.09-20.49,1.79-41,2.7-62.13,10.16-.93,19.75-1.68,29.31-2.71,61-6.61,121.08-17.4,178.69-39.43,4.9-1.87,6.86-4.09,6.76-9.54-.33-19.57-.07-39.15-.08-58.72,0-2.12-.32-4.24-.52-6.74C691.14,451,620,457.05,548.24,456.71c-.27-1.91-.46-2.86-.52-3.82-4.55-65.47-8.24-131-13.9-196.4-4.5-51.84-12.39-103.31-27.29-153.4C504.52,96.32,501.61,89.82,499.11,83.19ZM275.45,752.78h-.16q0,14.44,0,28.91c0,12.28,7.52,21.31,17.84,21.37,11.76.07,20.5-8.94,20.57-21.53q.18-28.92,0-57.83c-.07-11.67-8.2-19.92-19.37-20-10.85-.11-18.66,7.8-18.87,19.46C275.31,733,275.45,742.89,275.45,752.78Zm444.72.28h.12V738.2c0-5,.07-9.9,0-14.85-.18-12-7.88-19.7-19.45-19.49-10.9.19-18.55,8.16-18.65,19.76q-.26,29.7-.21,59.4c0,11.58,7.36,19.73,17.57,19.88,12.18.18,20.33-7.34,20.58-19.4C720.34,773.36,720.17,763.2,720.17,753.06Zm-92.44-79.57h0c0-8.92.17-17.84,0-26.75-.25-11.12-8-19-18.55-19.2a19.53,19.53,0,0,0-19.81,19.05q-.52,26.37-.09,52.76c.18,11.62,8.43,20.06,18.72,20,11.51,0,19.42-8.2,19.69-20.62C627.88,690.33,627.73,681.91,627.73,673.49Zm0,142h-.18c0-8.67.28-17.35-.06-26-.45-11.32-9-19.38-19.61-19.12-11.07.26-18.49,8-18.59,19.75q-.21,24.89-.12,49.77c.06,12.19,7.62,20.7,18.34,21,11.77.29,19.87-8,20.18-20.86C627.85,831.86,627.69,823.68,627.69,815.51Zm-222.4-142h-.11V647.53c0-.5,0-1-.06-1.48-1-10.66-9.29-18.39-19.71-18.36-10.12,0-18.11,7.6-18.36,18.42-.42,18-.58,36.07-.3,54.09.17,10.79,8.43,19,18,19.08a20.15,20.15,0,0,0,20.54-19.88C405.45,690.76,405.29,682.11,405.29,673.46ZM367.55,815.27h-.09c0,4,0,7.9,0,11.86,0,4.2-.06,8.4,0,12.6.1,11.86,7.33,20.66,17.35,21.15a19.43,19.43,0,0,0,20.61-19c.59-18,.41-36.07-.33-54.08-.42-10.44-9.37-17.6-19.52-17.36-10,.24-17.68,8.21-18,18.9C367.38,798,367.55,806.62,367.55,815.27ZM750.42,611.21c-1.55-17.22-16.73-27.1-30.95-19.44A263,263,0,0,0,685,613.4c-4.25,3.22-7.59,10.11-7.93,15.54-.9,14.25,14.69,23.91,28.33,17.42a243.63,243.63,0,0,0,35-20.63C745,622.58,747.16,616.15,750.42,611.21ZM317.48,628.05c0-7.61-3.41-13.29-9.77-17.21-10.1-6.24-20.13-12.59-30.44-18.46-10.68-6.09-21.78-3.39-27.81,6.24-5.78,9.22-3.33,21.34,6.48,28,10.21,7,20.65,13.65,31.49,19.55C301.2,653.67,317.29,643.65,317.48,628.05Z" transform="translate(-191.73 -11.68)"/>
    <path d="M600.91,113.07c31.39,12.36,57.2,29.83,81.16,50.16,59,50.06,96.85,113,114.88,189.52-3.09-.62-5.56-1-8-1.61-18.49-4.53-37-9-55.42-13.82A9.31,9.31,0,0,1,728,332c-15.92-53.2-47.9-93.85-95.44-122.22-5.9-3.52-8.73-7.21-9.46-14.24-2.48-24-7.71-47.37-17.09-69.7C604.51,122.23,603.13,118.63,600.91,113.07Z" transform="translate(-191.73 -11.68)"/>
    <path d="M198.52,352.47c27-110,91.75-188.28,193.24-239.33-.57,3.15-.61,4.73-1.14,6.13-9.85,26.34-16.76,53.32-18.84,81.48-.16,2.19-2.8,4.9-5,6.13-40.35,22.82-70.3,55.18-89.2,97.49-4,9-6.34,18.74-9.67,28.06-.65,1.8-2.11,4.3-3.63,4.67C243,342.28,221.53,347.15,198.52,352.47Z" transform="translate(-191.73 -11.68)"/>
  </g>
</svg>
