<svg xmlns="http://www.w3.org/2000/svg" viewBox="0 0 1916.6 2961.1">
  <defs>
    <style>
      .cls-1, .cls-2, .cls-4 {
        fill: #fff;
      }

      .cls-1 {
        opacity: 0.09;
      }

      .cls-2 {
        font-size: 256px;
        font-family: ElementaryGothicBookhand-Regular, Elementary Gothic Bookhand;
      }

      .cls-3, .cls-6 {
        fill: none;
      }

      .cls-3, .cls-4, .cls-5, .cls-6, .cls-7, .cls-8, .cls-9 {
        stroke: #fff;
        stroke-miterlimit: 10;
      }

      .cls-3, .cls-4 {
        stroke-width: 10px;
      }

      .cls-5, .cls-7, .cls-8, .cls-9 {
        fill: #1b1b1b;
      }

      .cls-5 {
        stroke-width: 40px;
      }

      .cls-6 {
        stroke-width: 125px;
      }

      .cls-7 {
        stroke-width: 150px;
      }

      .cls-8 {
        stroke-width: 200px;
      }

      .cls-9 {
        stroke-width: 100px;
      }
    </style>
  </defs>
  <g id="Calque_4" data-name="Calque 4">
    <path class="cls-1" d="M2000.4,2351v68.4h-.2V2351Zm0-273.6c-22.7-.2-45.2-12.5-54.9-33.5s-20.8-38.2-29.2-58.1c-14.8-35.5-27.5-71.8-42.2-107.3-3.6-8.7-9.7-19.1-17.5-22.9-46.4-23.2-93.8-44.3-140.4-67.2-5-2.4-9.6-12.3-9.1-18.3,2.3-27.7,9.5-55.3-6.6-86.1l128.4,58,3.3-4.4c-9-44.5-34-81.9-54.4-122.6,60.3,15.9,104,53,139,102.6,2-1.4,4.9-2.5,6-4.5,13.8-24.1,13.6-48.8.9-73-11.6-21.9-24-43.4-36.7-64.7-5.1-8.6-3.6-13,4.4-19a706.2,706.2,0,0,0,108.7-100.9v1.4h.1l1,.2V1312.2h-1.5a15.8,15.8,0,0,1-3.2-.3h0l-14.5-.4c-9.8-.2-16,4.4-19,14.7-14.1,48.3-44.9,86.1-78.7,121.7-16.4,17.4-36.7,25.9-60.6,18.2-38.1-12.2-76.5-23.7-113.6-38.3-84.7-33.2-169.3-66.5-252.7-102.6-92.9-40.2-184.5-83.5-276.7-125.5-1.5-.7-2.7-2.4-7-6.1,93.7-53.7,177.4-119.9,278.4-158.7-5.6-6.1-10.4-11.5-15.5-16.7q-54.2-55.6-108.5-111.3c-6.5-6.6-14.3-11.8-20.7-18.5-9.9-10.3-25.1-17.4-23.3-38.8l101.4,30.9c-6-45-11.9-88.9-18-134.3,27.5,20.4,53.7,39,78.9,58.8s48.6,40.2,72.9,60.4l3.8-3.1c-7.9-53.5-15.9-107-24.3-163.9,7,2.1,8.6,2.2,9.7,3,21.3,16.4,43.4,31.9,63.6,49.5,51.3,44.4,102.3,89.4,152.5,135.1,34.1,31,67.1,63.3,99.9,95.6,42.1,41.5,83.3,83.8,125.3,125.5a496.5,496.5,0,0,0,40.4,36.2c1.5,1.2,4.4,1.8,7.4,1.7v.2l2.3-.2,1.5.2.9-958.5c0-.1,0-.2-.1-.2s-.7-1.5-1.1-2.3-.2-.3-.2-.5a3.5,3.5,0,0,1-.5-.8c-17,24.7-33.4,47.1-48.1,70.5-24.8,39.5-48,80-72.9,119.4-10.9,17.2-24.5,32.8-37.4,49.8-13.6-41.7-27.2-83.7-40.6-124.9-37.4,63.4-75.1,127.1-114.3,193.4-34.6-54.6-68.5-107.7-104.8-164.8-36.6,98-74.3,190-126,276.8-40.9-32.3-63.6-81.5-108.8-114.8-2.5,19.4-4,34.7-6.5,49.8-8.1,50.8-18,101.4-24.2,152.5-2.3,19.2-10,33-21.3,47.1-29.5,36.9-57.6,74.9-76,119-17.2,41.5-35,82.9-52.6,124.3-.8,1.7-2.1,3.3-4.8,7.5-14.6-17.1-27.5-33.7-41.9-48.8-21.7-22.8-44.5-44.6-66.8-66.9l-5.6-5.4C1002.7,824,959,778.6,911.8,737.4c-52-45.2-107.1-86.8-161.2-129.5-27.3-21.6-54.9-42.9-83.2-63C627.7,516.7,587,489.8,547,462.1c-17.9-12.4-35.3-25.6-53-38.4-5.8-4.2-11.9-8.1-21.5-14.7,5.4,20.8,9.5,38,14.5,54.9,17.2,59.2,34.4,118.4,52.4,177.4,18.9,62,38.9,123.6,58,185.5q22.5,72.8,44,145.7c19.8,67.1,38.8,134.4,58.9,201.5,16.2,54,33.2,107.9,50.5,161.7,15.9,49.3,31.7,98.6,49.6,147.2,13.9,37.9,28.7,75.8,47.5,111.5,13.3,25.2,32.4,48,51.7,69.3,10.2,11.2,15.1,22.2,13.8,35.7-2.8,27.8-7.5,55.4-10.5,83.2s4.5,54,21.9,75.5c27.1,33.3,62.7,52.2,105.9,56.4,35.4,3.4,60.5-16.9,64.3-52.3.5-4.7.7-9.3,1-15.1l101.5,40.9c0,83.7-.2,167.5.4,251.3,0,4.6,4.9,10.5,9.1,13.6,20.4,14.9,42.7,27.4,61.6,43.9,23.8,20.7,44.3,45.1,67.5,66.7,16.8,15.6,24.9,34.9,30.6,56.1,14.3,53.2,27.4,106.9,43.6,159.6,14.3,46.5,29.7,93,49.2,137.5,16.7,38.1,39.8,73.4,60,109.9l3.4,5.3q39.8,65.8,79.6,131.7c2.1,3.5,5.4,6.4,11.5,8V2618.9l385.7,368,.2-266.3c-68.3.9-131.9-20.1-188.1-72.2-50.2-46.5-101.8-91.4-151.9-138-30.3-28.3-58.9-58.5-88.3-87.8-2.1-2.2-4.7-4-7-6l-75.7-68.6c171.1-56,341.8-85.9,511.2-86.7h.3l.2-184.6h-.2Zm-575.3-672c94.8,33.5,187.8,68.3,278.6,111.6-36,33.2-114.1,59.7-190.5,22.9C1470.7,1519.4,1422.3,1450.6,1425.1,1405.4Zm-478.5,11.1c-1.8,11.8-15.8,21.8-24.5,32.5-.5.6-1.8.5-2.5.6-4.7-5.6-9-11.4-14-16.5-24.2-24.9-46.5-51.7-47.4-88-1-38.9,1.7-77.9,3.5-116.8.5-9.9,3.8-19.7,5.7-29.2l52.2,20.6c0,9.5,1.1,19.5-.2,29.2-6.1,44.7-.7,88.2,12.7,130.9C936.1,1392.5,948.3,1405.3,946.6,1416.5ZM1065.2,1648c-6.3,9.3-13.8,18.2-18.2,28.4-14.8,34.1-23.6,70-23.3,107.3.3,30.6,2.7,61.2,4.3,93.9-13.4-4.7-25.5-9.1-37.7-13.2-13.9-4.6-21-14.1-22.3-28.7-6.4-69.4,5.8-135.7,34.3-199,8.4-18.7,22.5-22.5,40.9-13.6,5.6,2.6,11.2,5.3,16.9,7.7C1068.9,1634.6,1070.4,1640.1,1065.2,1648Zm-2.1-62-95.7-57.6c9.8-17.9,18.8-34.5,27.6-50.5,12.5,16.1,24.2,31.6,36.5,46.6,9.7,12,20.7,22.9,29.9,35.2,4.2,5.6,5.4,13.5,7.9,20.3Zm-9.9-339c-33.5-60.1-68-119.7-104.3-178.2C917.3,1017.9,883.7,968,849.1,919c-32.2-45.6-66.3-89.9-100.7-133.9s-68.3-84.6-102.3-126.9c-7.3-9.1-13.9-18.8-20.8-28.3l3.6-3.9c29.8,20.9,60.2,41,89.2,63.1,31.8,24.1,62.9,49.2,92.9,75.4,52,45.2,104.2,90.3,153.8,138a1045.8,1045.8,0,0,1,98,108.2c30.9,39.5,57.1,82.8,85.4,124.3,5,7.5,4.1,12.2-4,17.7-17.5,11.9-34.3,25-51.2,37.8s-16.8,13.4-2.2,28.6c18.5,19.5,37.9,38.2,57.5,56.7,11.2,10.5,21.9,19.8,8,35.8-2.8,3.3-3.1,8.7-4.4,13.2l-22.5,79.7c-9.8-19.9-18.9-38.4-27.8-56.9C1085.5,1314.1,1071.3,1279.5,1053.2,1247Zm844.7,948.1c-43.9,5.4-87.8,10.7-131.6,16.6-10.2,1.4-15-2.1-18.4-11.5q-25.7-70.6-52.2-141.2c-7.3-19.5-15.1-38.8-22.7-58.2l-5.5.3c-1.5,4.9-3.5,9.8-4.6,14.8q-21.2,101.5-42.1,203c-3.3,15.7-9.7,27-28.5,30.7-22.8,4.5-44.6,13.6-66.9,20.6-5,1.5-10.2,2.4-15.1,3.5,28.7-132.4,42.4-266.2,88.1-388.4-173.1-83.1-322.3-199.8-469.2-317.9,48.8-44.3,97.1-87.9,145.2-131.5,32.1,23.7,53.7,53.8,67.9,90,5.2,13.1,8.2,25.2,2.9,39-3.1,7.9-3.8,16.8-6.1,27.5l197.1,35.7c-22.8,34-46.6,69.8-70.5,105.6,83-24.8,159.5-60.4,234.7-102.2-3.5,28-10.3,52.4-29.5,73.1-9.8,10.5-17.2,24.3-22.3,37.9s-5,28.7-8.8,42.7c-7.2,27,5.8,46.5,25.2,60.5,34.1,24.5,70.4,45.8,105.3,69.1,24.2,16.1,45.2,33.6,54.8,64.2,10.2,32.5,27.9,62.6,41.1,94.2,14.6,35.3,28.1,71,41.5,106.7C1910.8,2187.9,1907.5,2193.9,1897.9,2195.1Zm101.8,791.8h.6M1691.7,1174.8c-4.5-5.7-10.7-17.8-9.5-18.8,7.3-6,16.2-12.1,25.1-13s17,3.8,24,8.5a261.2,261.2,0,0,1,34.2,26.9c27.2,25.2,54.8,50.2,80.3,77.1,14.4,15.1,10.4,28.1-8.5,36.7-13.6,6.2-28.1,10.5-39.1,14.4C1761.5,1261.3,1726.4,1218.2,1691.7,1174.8Zm304.8,1244.7a521.6,521.6,0,0,0-86.2,6.7c-4.3.7-11.6-2.8-14-6.6-10.7-16.8-20.2-34.4-33-56.8,46.4-6.3,91.7-10.7,137.1-11.6v68.2h-.8Z" transform="translate(-85.8 -98.1)"/>
    <text class="cls-2" transform="translate(539.6 570.4)">Sort</text>
  </g>
  <g id="Calque_1" data-name="Calque 1">
    <path class="cls-3" d="M1041.5,850.8c5.5,0,13.1-3.2,16.9-7.2l48.9-51.6c3.8-4,8.8-3.2,11.2,1.8l30.6,64.1c2.3,5,8.6,10.4,13.8,12.1l79,25.7c5.2,1.7,13.5,1,18.3-1.7l62.4-33.9c4.9-2.6,9.4-.3,10.1,5.2l9.3,70.4c.7,5.4,4.9,12.5,9.4,15.8l67.2,48.8c4.4,3.3,12.5,5.1,17.9,4.1l69.8-13c5.5-1,9.1,2.6,8.1,8l-13,69.9c-1,5.4.8,13.4,4.1,17.9l48.8,67.2c3.2,4.5,10.3,8.7,15.8,9.4l70.4,9.3c5.5.7,7.8,5.2,5.2,10.1l-33.9,62.4c-2.7,4.8-3.4,13-1.7,18.3l25.6,79c1.7,5.2,7.2,11.4,12.2,13.8l64.1,30.6c4.9,2.3,5.7,7.4,1.7,11.2l-51.5,48.8c-4,3.8-7.2,11.4-7.2,16.9v83.1c0,5.5,3.2,13.1,7.2,16.9l51.5,48.9c4,3.8,3.2,8.8-1.7,11.2l-64.1,30.5c-5,2.4-10.5,8.6-12.2,13.9l-25.6,79c-1.7,5.2-1,13.5,1.7,18.3l33.9,62.4c2.6,4.8.3,9.4-5.2,10.1l-70.4,9.3c-5.5.7-12.6,4.9-15.8,9.3l-48.8,67.3c-3.3,4.4-5.1,12.5-4.1,17.9l13,69.8c1,5.4-2.6,9-8.1,8l-69.8-12.9c-5.4-1-13.5.8-17.9,4l-67.2,48.9c-4.5,3.2-8.7,10.3-9.4,15.8l-9.3,70.4c-.7,5.4-5.2,7.8-10.1,5.1l-62.4-33.9c-4.8-2.6-13.1-3.4-18.3-1.7l-79,25.7c-5.2,1.7-11.5,7.2-13.8,12.1l-30.6,64.2c-2.4,4.9-7.4,5.7-11.2,1.7l-48.9-51.5c-3.8-4-11.4-7.3-16.9-7.3h-83c-5.5,0-13.1,3.3-16.9,7.3l-48.9,51.5c-3.8,4-8.8,3.2-11.2-1.7l-30.6-64.2c-2.3-4.9-8.6-10.4-13.8-12.1l-79-25.7c-5.2-1.7-13.5-.9-18.3,1.7l-62.4,33.9c-4.9,2.7-9.4.3-10.1-5.1l-9.3-70.4c-.7-5.5-4.9-12.6-9.4-15.8l-67.2-48.9c-4.4-3.2-12.5-5-17.9-4l-69.8,12.9c-5.5,1-9.1-2.6-8.1-8l13-69.8c1-5.4-.8-13.5-4.1-17.9l-48.8-67.3c-3.2-4.4-10.3-8.6-15.8-9.3l-70.4-9.3c-5.5-.7-7.8-5.3-5.2-10.1l33.9-62.4c2.7-4.8,3.4-13.1,1.7-18.3l-25.6-79c-1.7-5.3-7.2-11.5-12.2-13.9L288,1624.3c-4.9-2.4-5.7-7.4-1.7-11.2l51.5-48.9c4-3.8,7.2-11.4,7.2-16.9v-83.1c0-5.5-3.2-13.1-7.2-16.9l-51.5-48.8c-4-3.8-3.2-8.9,1.7-11.2l64.1-30.6c5-2.4,10.5-8.6,12.2-13.8l25.6-79c1.7-5.3,1-13.5-1.7-18.3l-33.9-62.4c-2.6-4.9-.3-9.4,5.2-10.1l70.4-9.3c5.5-.7,12.6-4.9,15.8-9.4l48.8-67.2c3.3-4.5,5.1-12.5,4.1-17.9l-13-69.9c-1-5.4,2.6-9,8.1-8l69.8,13c5.4,1,13.5-.8,17.9-4.1l67.2-48.8c4.5-3.3,8.7-10.4,9.4-15.8l9.3-70.4c.7-5.5,5.2-7.8,10.1-5.2L739.8,894c4.8,2.7,13.1,3.4,18.3,1.7l79-25.7c5.2-1.7,11.5-7.1,13.8-12.1l30.6-64.1c2.4-5,7.4-5.8,11.2-1.8l48.9,51.6c3.8,4,11.4,7.2,16.9,7.2Z" transform="translate(-85.8 -98.1)"/>
    <path class="cls-3" d="M1038.7,887.3c5.5,0,13.1-3.3,16.9-7.3l45.4-47.9c3.7-3.9,8.8-3.1,11.1,1.8l28.4,59.6c2.4,4.9,8.6,10.4,13.8,12.1l73.6,23.9c5.3,1.7,13.5.9,18.3-1.7l58-31.5c4.8-2.6,9.4-.3,10.1,5.2l8.6,65.4c.7,5.4,4.9,12.5,9.4,15.7l62.6,45.5c4.4,3.2,12.5,5.1,17.9,4.1l64.8-12.1c5.4-1,9,2.6,8,8l-12,64.9c-1,5.4.8,13.5,4.1,17.9l45.4,62.6c3.3,4.5,10.4,8.7,15.8,9.4l65.4,8.6c5.5.7,7.8,5.3,5.2,10.1l-31.5,58c-2.6,4.8-3.4,13-1.7,18.3l23.9,73.5c1.7,5.3,7.2,11.5,12.1,13.8l59.6,28.4c4.9,2.4,5.7,7.4,1.7,11.2l-47.8,45.4c-4,3.8-7.3,11.4-7.3,16.9v77.4c0,5.5,3.3,13.1,7.3,16.8l47.8,45.4c4,3.8,3.2,8.9-1.7,11.2l-59.6,28.4c-4.9,2.4-10.4,8.6-12.1,13.8l-23.9,73.6c-1.7,5.2-.9,13.5,1.7,18.3l31.5,58c2.6,4.8.3,9.3-5.2,10.1l-65.4,8.6c-5.4.7-12.5,4.9-15.8,9.3l-45.4,62.6c-3.3,4.5-5.1,12.5-4.1,18l12,64.8c1,5.4-2.6,9-8,8l-64.8-12c-5.4-1-13.5.8-17.9,4l-62.6,45.5c-4.5,3.2-8.7,10.4-9.4,15.8l-8.6,65.4c-.7,5.5-5.3,7.8-10.1,5.1l-58-31.4c-4.8-2.7-13-3.4-18.3-1.7l-73.6,23.9c-5.2,1.7-11.4,7.1-13.8,12.1l-28.4,59.5c-2.3,5-7.4,5.8-11.1,1.8l-45.4-47.8c-3.8-4-11.4-7.3-16.9-7.3H961.3c-5.5,0-13.1,3.3-16.9,7.3L899,2179.4c-3.7,4-8.8,3.2-11.1-1.8l-28.4-59.5c-2.4-5-8.6-10.4-13.8-12.1l-73.6-23.9c-5.3-1.7-13.5-1-18.3,1.7l-58,31.4c-4.8,2.7-9.4.4-10.1-5.1l-8.6-65.4c-.7-5.4-4.9-12.6-9.4-15.8l-62.6-45.5c-4.4-3.2-12.5-5-17.9-4l-64.8,12c-5.4,1-9-2.6-8-8l12-64.8c1-5.5-.8-13.5-4.1-18L476.9,1838c-3.3-4.4-10.4-8.6-15.8-9.3l-65.4-8.6c-5.5-.8-7.8-5.3-5.2-10.1l31.5-58c2.6-4.8,3.4-13.1,1.7-18.3l-23.9-73.6c-1.7-5.2-7.2-11.4-12.1-13.8l-59.6-28.4c-4.9-2.3-5.7-7.4-1.7-11.2l47.8-45.4c4-3.7,7.3-11.3,7.3-16.8v-77.4c0-5.5-3.3-13.1-7.3-16.9l-47.8-45.4c-4-3.8-3.2-8.8,1.7-11.2l59.6-28.4c4.9-2.3,10.4-8.5,12.1-13.8l23.9-73.5c1.7-5.3.9-13.5-1.7-18.3l-31.5-58c-2.6-4.8-.3-9.4,5.2-10.1l65.4-8.6c5.4-.7,12.5-4.9,15.8-9.4l45.4-62.6c3.3-4.4,5.1-12.5,4.1-17.9l-12-64.9c-1-5.4,2.6-9,8-8l64.8,12.1c5.4,1,13.5-.9,17.9-4.1l62.6-45.5c4.5-3.2,8.7-10.3,9.4-15.7l8.6-65.4c.7-5.5,5.3-7.8,10.1-5.2l58,31.5c4.8,2.6,13,3.4,18.3,1.7l73.6-23.9c5.2-1.7,11.4-7.2,13.8-12.1l28.4-59.6c2.3-4.9,7.4-5.7,11.1-1.8L944.4,880c3.8,4,11.4,7.3,16.9,7.3Z" transform="translate(-85.8 -98.1)"/>
    <circle class="cls-4" cx="915" cy="1407.7" r="217.6"/>
    <line class="cls-5" x1="915" y1="1015.3" x2="915" y2="1800.2"/>
    <line class="cls-5" x1="914.2" y1="1407.7" x2="1307.4" y2="1407.7"/>
    <path class="cls-6" d="M707.7,1766.8a391.4,391.4,0,0,0,293.1,131.4c216.7,0,392.4-175.7,392.4-392.4s-175.7-392.5-392.4-392.5a391.2,391.2,0,0,0-293.1,131.5" transform="translate(-85.8 -98.1)"/>
    <line class="cls-7" x1="915" y1="2884.2" x2="915" y2="1800.2"/>
    <line class="cls-8" x1="915" y1="1793.5" x2="915" y2="1984.6"/>
    <line class="cls-9" x1="1132.6" y1="982.8" x2="1032.6" y2="1134.8"/>
    <line class="cls-9" x1="1242.5" y1="1066.4" x2="1122.7" y2="1203.3"/>
  </g>
  <g id="Calque_2" data-name="Calque 2">
    <rect class="cls-3" x="5" y="5" width="1813.3" height="2951.11"/>
    <rect class="cls-3" x="37" y="40.6" width="1749.3" height="2879.89" rx="106.7"/>
  </g>
</svg>
