<svg xmlns="http://www.w3.org/2000/svg" viewBox="0 0 2000 2000">
  <defs>
    <style>
      .cls-1 {
        fill: #1d1d1b;
      }
    </style>
  </defs>
  <g id="Calque_2" data-name="Calque 2">
    <path class="cls-1" d="M1577,1188.7l-3.9,11.5,8.3-.7ZM426.9,1200.2l-3.9-11.5a591.8,591.8,0,0,1-19.1-74.1l-39.8,100.2a14,14,0,0,0,11.5,19.2l66.9,6C436.8,1227,431.6,1213.7,426.9,1200.2Zm0,0-3.9-11.5a591.8,591.8,0,0,1-19.1-74.1l-39.8,100.2a14,14,0,0,0,11.5,19.2l66.9,6C436.8,1227,431.6,1213.7,426.9,1200.2Zm26,62.5-81.4-7.1a29.1,29.1,0,0,1-24.3-39.8l52.1-128.2h0A601.8,601.8,0,0,1,393,1000c0-7.6.1-15.1.4-22.7L288.9,1235.1c-23.5,57.8,15.6,121.8,77.8,127.3l157.4,13.9A602.5,602.5,0,0,1,452.9,1262.7ZM1743.5,685.8a809.6,809.6,0,0,0-429.4-429.3C1214.6,214.3,1108.9,193,1000,193s-214.6,21.3-314.1,63.5A808.3,808.3,0,0,0,226.8,1232a164.6,164.6,0,0,1,6.4-19.5l223-549.6a153.4,153.4,0,0,1,116.1-93.2C682.1,460.5,833.3,393,1000,393s317.9,67.5,427.7,176.7a153.1,153.1,0,0,1,116,93.2l223.1,549.6a164.6,164.6,0,0,1,6.4,19.5,810.8,810.8,0,0,0-29.7-546.2Zm-107.6,529-39.8-100.2a591.8,591.8,0,0,1-19.1,74.1l-3.9,11.5c-4.7,13.5-9.9,26.8-15.6,39.8l66.9-6A14,14,0,0,0,1635.9,1214.8Zm75.2,20.3L1606.6,977.3c.3,7.6.4,15.1.4,22.7a601.8,601.8,0,0,1-6.3,87.5h0l52.1,128.2a29.1,29.1,0,0,1-24.3,39.8l-81.4,7.1a602.5,602.5,0,0,1-71.2,113.6l157.4-13.9C1695.5,1356.9,1734.6,1292.9,1711.1,1235.1Zm-72.5,187.1-222.9,19.7C1307,1544.2,1160.7,1607,1000,1607s-307-62.8-415.7-165.1l-222.9-19.7a152.4,152.4,0,0,1-60.2-18.3,807.6,807.6,0,0,0,1397.6,0A152.4,152.4,0,0,1,1638.6,1422.2ZM423,1188.7l-4.4,10.8,8.3.7Zm3.9,11.5-3.9-11.5a591.8,591.8,0,0,1-19.1-74.1l-39.8,100.2a14,14,0,0,0,11.5,19.2l66.9,6C436.8,1227,431.6,1213.7,426.9,1200.2ZM1577,1188.7l-3.9,11.5,8.3-.7Z"/>
    <g>
      <g>
        <path class="cls-1" d="M403.9,1114.6,599.2,621.1l2.4-6.1a13.6,13.6,0,0,1,13.8-8.6l42.3,3.8L423,1188.7l-4.4,10.8,8.3.7L940,1245.6l48.8,4.3,4.3-1.3v26.1a14,14,0,0,1-5.7,11.3,13.1,13.1,0,0,1-9.1,2.6l-38.3-3.5L442.5,1240l-66.9-6a14,14,0,0,1-11.5-19.2l39.8-100.2Z"/>
        <path class="cls-1" d="M1060,1229.1v56l-38.3,3.5a13.1,13.1,0,0,1-9.1-2.6,14,14,0,0,1-5.7-11.3v-30.1Z"/>
        <path class="cls-1" d="M1060,1305.8v107.3l-60,5.3-60-5.3-415.9-36.8-157.4-13.9c-62.2-5.5-101.3-69.5-77.8-127.3L393.4,977.3h0L511.9,685.5a92.8,92.8,0,0,1,73.7-57.2L399.3,1087.5h0l-52.1,128.2a29.1,29.1,0,0,0,24.3,39.8l81.4,7.1L940,1305.8l49.3,4.4h2.6a27.4,27.4,0,0,0,8.1-1.2,27.4,27.4,0,0,0,8.1,1.2h2.6Z"/>
        <path class="cls-1" d="M1000,1309.1v109.3l-60-5.3-415.9-36.8-157.4-13.9c-62.2-5.5-101.3-69.5-77.8-127.3L393.4,977.3h0L511.9,685.5a92.8,92.8,0,0,1,73.7-57.2L399.3,1087.5h0l-52.1,128.2a29.1,29.1,0,0,0,24.3,39.8l81.4,7.1L940,1305.8l49.3,4.4h2.6A27.4,27.4,0,0,0,1000,1309.1Z"/>
      </g>
      <g>
        <path class="cls-1" d="M993.1,1244.6v30.1a14,14,0,0,1-5.7,11.3,13.1,13.1,0,0,1-9.1,2.6l-38.3-3.5v-56Z"/>
        <path class="cls-1" d="M1006.9,1274.7v-26.1l4.3,1.3,48.8-4.3,513.1-45.4,8.3-.7-4.4-10.8L1342.3,610.2l42.3-3.8a13.6,13.6,0,0,1,13.8,8.6l2.4,6.1,195.3,493.5h0l39.8,100.2a14,14,0,0,1-11.5,19.2l-66.9,6L1060,1285.1l-38.3,3.5a13.1,13.1,0,0,1-9.1-2.6A14,14,0,0,1,1006.9,1274.7Z"/>
        <path class="cls-1" d="M1633.3,1362.4l-157.4,13.9L1060,1413.1l-60,5.3-60-5.3V1305.8l49.3,4.4h2.6a27.4,27.4,0,0,0,8.1-1.2,27.4,27.4,0,0,0,8.1,1.2h2.6l49.3-4.4,487.1-43.1,81.4-7.1a29.1,29.1,0,0,0,24.3-39.8l-52.1-128.2h0L1414.4,628.3a92.8,92.8,0,0,1,73.7,57.2l118.5,291.8h0l104.5,257.8C1734.6,1292.9,1695.5,1356.9,1633.3,1362.4Z"/>
        <path class="cls-1" d="M1633.3,1362.4l-157.4,13.9L1060,1413.1l-60,5.3V1309.1a27.4,27.4,0,0,0,8.1,1.2h2.6l49.3-4.4,487.1-43.1,81.4-7.1a29.1,29.1,0,0,0,24.3-39.8l-52.1-128.2h0L1414.4,628.3a92.8,92.8,0,0,1,73.7,57.2l118.5,291.8h0l104.5,257.8C1734.6,1292.9,1695.5,1356.9,1633.3,1362.4Z"/>
      </g>
    </g>
    <g>
      <path class="cls-1" d="M993.1,652.8v621.9a14,14,0,0,1-5.7,11.3,13.1,13.1,0,0,1-9.1,2.6l-38.3-3.5L442.5,1240l-66.9-6a14,14,0,0,1-11.5-19.2l39.8-100.2h0L599.2,621.1l2.4-6.1a13.6,13.6,0,0,1,13.8-8.6l42.3,3.8,323,28.7A13.9,13.9,0,0,1,993.1,652.8Z"/>
      <path class="cls-1" d="M1624.4,1234l-66.9,6L1060,1285.1l-38.3,3.5a13.1,13.1,0,0,1-9.1-2.6,14,14,0,0,1-5.7-11.3V652.8a13.9,13.9,0,0,1,12.4-13.9l323-28.7,42.3-3.8a13.6,13.6,0,0,1,13.8,8.6l2.4,6.1,195.3,493.5h0l39.8,100.2A14,14,0,0,1,1624.4,1234Z"/>
    </g>
  </g>
</svg>
