<svg id="Calque_1" data-name="Calque 1" xmlns="http://www.w3.org/2000/svg" viewBox="0 0 875.61 803.66">
  <g>
    <path d="M930.83,167.83c-5.07,3.65-10,7.44-15.18,11-11.48,8-23.13,15.64-34.51,23.72-8.13,5.77-16,11.89-23.84,18.07-15.51,12.25-31.31,24.16-46.2,37.12-13.56,11.8-26.06,24.81-39,37.29-.54.51-1.08,1-1.61,1.56-6.39,6.37-12.91,12.62-19.13,19.15-4.13,4.34-7.83,9.1-12,14a19,19,0,0,1-1.38-2.15c-5.05-11.87-10.14-23.71-15.09-35.62-5.27-12.65-13.31-23.52-21.77-34.1-3.25-4.06-5.44-8-6.11-13.5-1.78-14.64-4.61-29.14-6.94-43.71-.7-4.33-1.15-8.7-1.86-14.27-13,9.55-19.47,23.62-31.2,32.9-14.81-24.89-25.6-51.26-36.1-79.35l-30,47.24-32.75-55.43-11.63,35.81c-3.7-4.88-7.59-9.34-10.71-14.28C526.59,142,520,130.35,512.83,119c-4.18-6.65-8.82-13-13.65-20a6.08,6.08,0,0,1-.68,1l.27,274.6c.14,0,.27,0,.41,0s.45.05.67.07v-.06a3.6,3.6,0,0,0,2.14-.49,148,148,0,0,0,11.58-10.39c12-11.93,23.84-24.06,35.9-35.95,9.4-9.28,18.86-18.53,28.63-27.42q21.58-19.65,43.7-38.73c5.81-5,12.13-9.48,18.23-14.17a16.48,16.48,0,0,1,2.79-.85c-2.43,16.31-4.7,31.64-7,47l1.1.88c6.95-5.78,13.78-11.72,20.89-17.3s14.72-11,22.62-16.86c-1.74,13-3.43,25.6-5.16,38.51l29.06-8.87c.51,6.13-3.83,8.19-6.67,11.13-1.83,1.9-4.07,3.42-5.93,5.31q-15.62,15.9-31.11,31.89c-1.45,1.49-2.82,3.05-4.43,4.78,28.94,11.14,52.94,30.1,79.78,45.5a14.07,14.07,0,0,1-2,1.73c-26.41,12.05-52.66,24.46-79.29,36-23.91,10.34-48.17,19.9-72.43,29.41-10.65,4.18-21.65,7.47-32.55,11-6.87,2.21-12.68-.23-17.39-5.2-9.68-10.22-18.51-21.06-22.55-34.9-.87-2.95-2.64-4.26-5.45-4.21-1.38,0-2.76.06-4.14.13v0a7.06,7.06,0,0,1-1.05.1c-.11,0-.2,0-.31,0l0,41.59a.83.83,0,0,1,.29-.11v-.42c.15.18.32.36.48.54a.7.7,0,0,1,.18.2,203.79,203.79,0,0,0,30.49,28.19c2.3,1.73,2.73,3,1.26,5.45-3.64,6.1-7.19,12.26-10.5,18.54-3.66,6.94-3.69,14,.24,20.92.33.58,1.15.87,1.74,1.29,10-14.21,22.54-24.87,39.83-29.42-5.85,11.66-13,22.4-15.58,35.15l.93,1.25L585,529c-4.6,8.84-2.55,16.75-1.89,24.69.14,1.71-1.17,4.54-2.61,5.25-13.34,6.56-26.93,12.61-40.24,19.24-2.23,1.11-4,4.07-5,6.57-4.2,10.18-7.85,20.6-12.1,30.76-2.39,5.71-5.71,11-8.34,16.65-2.81,6-9.24,9.53-15.74,9.61v-.2h0l0,52.91h0v0h.3l.22,0c48.41.26,97.18,8.84,146.07,24.83C638.2,726.12,631.1,732.56,624,739c-.65.59-1.38,1.1-2,1.72-8.42,8.4-16.61,17-25.3,25.16-14.35,13.37-29.14,26.25-43.52,39.57-16.11,14.92-34.36,20.93-53.93,20.68l.07,76.35L609.82,797v72.44a5.06,5.06,0,0,0,3.3-2.29q11.46-18.86,22.83-37.76c.31-.51.66-1,.95-1.52,5.81-10.46,12.43-20.57,17.2-31.48a368.29,368.29,0,0,0,14.12-39.43c4.64-15.09,8.38-30.47,12.49-45.74,1.63-6.07,4-11.6,8.77-16.08,6.63-6.18,12.52-13.18,19.34-19.12,5.42-4.72,11.82-8.29,17.65-12.56,1.22-.89,2.62-2.58,2.63-3.91.15-24,.11-48,.11-72l29.07-11.7c.11,1.65.16,3,.3,4.31,1.1,10.17,8.29,16,18.44,15a43.07,43.07,0,0,0,30.33-16.16,28.62,28.62,0,0,0,6.3-21.64c-.86-8-2.21-15.87-3-23.83-.4-3.89,1-7,3.94-10.23,5.55-6.11,11-12.64,14.83-19.88,5.38-10.21,9.61-21.08,13.6-31.94,5.13-13.93,9.66-28.08,14.22-42.21q7.46-23.1,14.48-46.35c5.76-19.2,11.19-38.51,16.87-57.74q6.17-20.91,12.61-41.75c5.48-17.74,11.21-35.41,16.63-53.17,5.15-16.91,10.08-33.88,15-50.85,1.42-4.85,2.58-9.77,4.15-15.74C934.24,165.49,932.51,166.62,930.83,167.83ZM584.11,481.18c26-12.43,52.69-22.38,79.85-32,.8,13-13.07,32.7-25.26,38.57C616.82,498.28,594.44,490.68,584.11,481.18Zm30.18,105.56c13.12,35,17,73.36,25.27,111.32-1.41-.33-2.91-.57-4.34-1-6.39-2-12.65-4.62-19.17-5.89-5.4-1.06-7.22-4.3-8.16-8.8-4.06-19.39-8-38.8-12.09-58.19-.3-1.44-.87-2.83-1.31-4.24l-1.58-.09c-2.17,5.56-4.39,11.11-6.49,16.7-5,13.47-10.07,26.94-15,40.46-1,2.68-2.34,3.7-5.27,3.3-12.55-1.69-25.13-3.21-37.7-4.76-2.76-.34-3.7-2.06-2.83-4.37,3.85-10.23,7.71-20.47,11.9-30.56,3.78-9.08,8.86-17.69,11.78-27,2.74-8.78,8.77-13.8,15.7-18.42,10-6.67,20.42-12.77,30.18-19.79,5.56-4,9.3-9.6,7.22-17.34-1.07-4-1.06-8.39-2.51-12.24a33.48,33.48,0,0,0-6.4-10.86c-5.5-5.92-7.45-12.94-8.43-21,21.54,12,43.48,22.19,67.25,29.3L632.13,513l56.49-10.22c-.65-3.08-.86-5.61-1.74-7.89-1.54-4-.67-7.4.82-11.18a56.73,56.73,0,0,1,19.47-25.77l41.62,37.67C706.68,529.45,663.92,562.91,614.29,586.74ZM795,572.51c-.39,4.19-2.42,6.9-6.4,8.24-3.5,1.17-7,2.42-10.81,3.76.45-9.36,1.15-18.12,1.23-26.89a75.68,75.68,0,0,0-6.68-30.77c-1.26-2.92-3.41-5.46-5.2-8.14-1.51-2.25-1.07-3.84,1.44-4.91,1.64-.7,3.25-1.46,4.85-2.23,5.28-2.53,9.32-1.46,11.74,3.91A112.08,112.08,0,0,1,795,572.51Zm-29-73.29c.73-2,1.06-4.2,2.26-5.8,2.64-3.53,5.8-6.66,8.59-10.09,3.5-4.31,6.85-8.74,10.46-13.37l7.89,14.48-27.41,16.5Zm60.51-67.33c-.25,10.42-6.64,18.11-13.59,25.24-1.43,1.46-2.66,3.12-4,4.73-.2-.05-.58,0-.72-.17-2.5-3.07-6.49-5.94-7-9.32-.49-3.22,3-6.88,4.16-10.53,3.82-12.23,5.37-24.71,3.63-37.52a63.06,63.06,0,0,1,0-8.36l14.94-5.89c.56,2.7,1.51,5.51,1.64,8.35C826,409.57,826.72,420.75,826.45,431.89ZM887.24,235c-9.76,12.13-19.75,24.09-29.33,36.36-9.85,12.62-19.62,25.32-28.86,38.4-9.92,14-19.54,28.32-28.61,42.93-10.39,16.76-20.28,33.84-29.88,51.07-5.18,9.31-9.27,19.22-13.88,28.84-2.55,5.31-5.16,10.58-7.95,16.31-2.27-8-4.35-15.44-6.46-22.84-.36-1.29-.45-2.86-1.26-3.79-4-4.58-.92-7.27,2.28-10.28,5.62-5.29,11.18-10.65,16.5-16.24,4.17-4.37,4-4.67-.64-8.18-4.86-3.68-9.65-7.45-14.68-10.86-2.31-1.56-2.58-2.92-1.13-5.05,8.11-11.92,15.6-24.32,24.47-35.64a299.82,299.82,0,0,1,28.08-31c14.22-13.68,29.19-26.6,44.07-39.57,8.62-7.5,17.54-14.7,26.64-21.62,8.31-6.31,17-12.07,25.58-18.07.34.38.67.76,1,1.13C891.21,229.64,889.34,232.42,887.24,235Z" transform="translate(-61.39 -98.82)"/>
    <path d="M499.09,720.18v19.61h0l0-19.61Z" transform="translate(-61.39 -98.82)"/>
    <path d="M499.29,902.48l0-.05" transform="translate(-61.39 -98.82)"/>
    <path d="M557,420.88c-3.14-1.14-7.3-2.36-11.2-4.13-5.43-2.47-6.56-6.21-2.45-10.53,7.33-7.7,15.23-14.86,23-22.09a77.63,77.63,0,0,1,9.8-7.73c2-1.32,4.66-2.66,6.86-2.42,2.56.27,5.13,2,7.21,3.71.35.29-1.43,3.78-2.72,5.4C577.62,395.53,567.56,407.87,557,420.88Z" transform="translate(-61.39 -98.82)"/>
    <path d="M499.09,720.25v19.54c.3,0,.57,0,.85,0a151,151,0,0,1,25,1.92,5,5,0,0,0,4-1.87c3.07-4.82,5.78-9.88,9.44-16.3A340.52,340.52,0,0,0,499.09,720.25Z" transform="translate(-61.39 -98.82)"/>
  </g>
  <g>
    <path d="M499.28,720.2l0,19.6h0V720.2Z" transform="translate(-61.39 -98.82)"/>
    <path d="M499.3,641.8c-6.5-.08-12.93-3.6-15.74-9.61-2.63-5.62-5.95-10.94-8.34-16.65-4.25-10.16-7.89-20.58-12.1-30.76-1-2.5-2.79-5.46-5-6.57-13.31-6.63-26.9-12.68-40.24-19.24-1.44-.71-2.75-3.54-2.61-5.25.66-7.94,2.71-15.85-1.89-24.69l36.8,16.62.93-1.25c-2.56-12.75-9.73-23.49-15.58-35.15,17.29,4.55,29.82,15.21,39.83,29.42.59-.42,1.41-.71,1.74-1.29,3.93-6.91,3.9-14,.24-20.92-3.31-6.28-6.86-12.44-10.5-18.54-1.47-2.47-1-3.72,1.26-5.45a204,204,0,0,0,31.16-28.93V464h0a.82.82,0,0,1,.28.06l0-41.53c-.15,0-.28,0-.44,0a6.67,6.67,0,0,1-.92-.09h0c-1.38-.07-2.76-.1-4.14-.13-2.81-.05-4.58,1.26-5.45,4.21-4,13.84-12.87,24.68-22.55,34.9-4.71,5-10.51,7.41-17.39,5.2-10.9-3.5-21.9-6.79-32.55-11-24.26-9.51-48.52-19.07-72.43-29.41-26.63-11.52-52.88-23.93-79.29-36a14.07,14.07,0,0,1-2-1.73c26.84-15.4,50.84-34.36,79.78-45.5-1.61-1.73-3-3.29-4.43-4.78q-15.53-16-31.11-31.89c-1.86-1.89-4.1-3.41-5.93-5.31-2.84-2.94-7.18-5-6.67-11.13l29.06,8.87c-1.73-12.91-3.42-25.49-5.16-38.51,7.9,5.86,15.4,11.18,22.62,16.86s13.94,11.52,20.89,17.3l1.1-.88c-2.28-15.32-4.55-30.65-7-47a16.48,16.48,0,0,1,2.79.85c6.1,4.69,12.42,9.14,18.23,14.17q22.07,19.13,43.7,38.73c9.77,8.89,19.23,18.14,28.63,27.42,12.06,11.89,23.89,24,35.91,35.95A146.06,146.06,0,0,0,496.4,374.1a3.6,3.6,0,0,0,2.14.49v.06a6.27,6.27,0,0,1,.64-.07c.16,0,.29,0,.44.05l.27-274.72,0,0c-.12-.21-.22-.43-.32-.65l-.06-.14a2,2,0,0,1-.14-.25c-4.87,7.08-9.56,13.51-13.78,20.22-7.12,11.31-13.76,22.93-20.91,34.22-3.12,4.94-7,9.4-10.71,14.28l-11.63-35.81-32.75,55.43-30.05-47.24c-10.5,28.09-21.29,54.46-36.1,79.35-11.73-9.28-18.23-23.35-31.2-32.9-.71,5.57-1.16,9.94-1.86,14.27-2.33,14.57-5.16,29.07-6.94,43.71-.67,5.49-2.86,9.44-6.11,13.5-8.46,10.58-16.5,21.45-21.77,34.1-4.95,11.91-10,23.75-15.09,35.62a19,19,0,0,1-1.38,2.15c-4.18-4.89-7.88-9.65-12-14-6.22-6.53-12.74-12.78-19.13-19.15-.53-.53-1.07-1.05-1.61-1.56-13-12.48-25.46-25.49-39-37.29-14.89-13-30.69-24.87-46.2-37.12-7.82-6.18-15.71-12.3-23.84-18.07-11.38-8.08-23-15.77-34.51-23.72-5.14-3.55-10.11-7.34-15.18-11-1.68-1.21-3.41-2.34-6.17-4.23,1.57,6,2.73,10.89,4.15,15.74,4.95,17,9.88,33.94,15,50.85C86,248,91.72,265.62,97.2,283.36q6.45,20.83,12.61,41.75c5.68,19.23,11.11,38.54,16.87,57.74q7,23.26,14.48,46.35c4.56,14.13,9.09,28.28,14.22,42.21,4,10.86,8.22,21.73,13.6,31.94,3.81,7.24,9.28,13.77,14.83,19.88,2.91,3.21,4.34,6.34,3.94,10.23-.8,8-2.15,15.87-3,23.83a28.62,28.62,0,0,0,6.3,21.64,43.07,43.07,0,0,0,30.33,16.16c10.16,1,17.34-4.82,18.44-15,.15-1.32.19-2.66.3-4.31l29.07,11.7c0,24,0,48,.11,72,0,1.33,1.41,3,2.63,3.91,5.83,4.27,12.23,7.84,17.65,12.56,6.82,5.94,12.71,12.94,19.34,19.12,4.8,4.48,7.14,10,8.77,16.08,4.11,15.27,7.85,30.65,12.49,45.74a368.29,368.29,0,0,0,14.12,39.43c4.77,10.91,11.39,21,17.2,31.48.29.52.64,1,.95,1.52q11.4,18.89,22.83,37.76a5.06,5.06,0,0,0,3.3,2.29V797L499.1,902.48l.07-76.35c-19.57.25-37.82-5.76-53.93-20.68-14.38-13.32-29.17-26.2-43.52-39.57-8.69-8.11-16.88-16.76-25.3-25.16-.63-.62-1.36-1.13-2-1.72-7.12-6.44-14.22-12.88-21.7-19.66,49-16,98-24.63,146.52-24.84h.07l.05-52.91h-.05ZM334.43,449.17c27.16,9.63,53.82,19.58,79.86,32-10.34,9.5-32.72,17.1-54.6,6.56C347.5,481.87,333.63,462.13,334.43,449.17Zm-137.16,3.2c-.52,3.38-4.51,6.25-7,9.32-.14.16-.52.12-.72.17-1.35-1.61-2.58-3.27-4-4.73-6.95-7.13-13.34-14.82-13.59-25.24-.27-11.14.48-22.32,1-33.47.13-2.84,1.08-5.65,1.64-8.35L189.53,396a63.06,63.06,0,0,1-.05,8.36c-1.74,12.81-.19,25.29,3.63,37.52C194.26,445.49,197.76,449.15,197.27,452.37Zm34,66.34c-1.79,2.68-3.94,5.22-5.2,8.14a75.68,75.68,0,0,0-6.68,30.77c.08,8.77.78,17.53,1.23,26.89-3.83-1.34-7.31-2.59-10.81-3.76-4-1.34-6-4-6.4-8.24a112.08,112.08,0,0,1,9.83-57c2.42-5.37,6.46-6.44,11.74-3.91,1.6.77,3.21,1.53,4.85,2.23C232.33,514.87,232.77,516.46,231.26,518.71Zm-.6-17.77-27.41-16.5L211.14,470c3.61,4.63,7,9.06,10.46,13.37,2.79,3.43,6,6.56,8.59,10.09,1.2,1.6,1.53,3.85,2.26,5.8Zm-2.83-97.15c-9.6-17.23-19.49-34.31-29.88-51.07-9.06-14.61-18.69-28.89-28.61-42.93-9.24-13.08-19-25.78-28.86-38.4-9.58-12.27-19.57-24.23-29.33-36.36-2.1-2.61-4-5.39-6-8.1.34-.37.67-.75,1-1.13,8.54,6,17.27,11.76,25.58,18.07,9.1,6.92,18,14.12,26.64,21.62,14.88,13,29.85,25.89,44.07,39.57a299.82,299.82,0,0,1,28.08,31c8.87,11.32,16.36,23.72,24.47,35.64,1.45,2.13,1.18,3.49-1.13,5.05-5,3.41-9.82,7.18-14.68,10.86-4.64,3.51-4.81,3.81-.64,8.18,5.32,5.59,10.88,10.95,16.5,16.24,3.2,3,6.26,5.7,2.28,10.28-.81.93-.9,2.5-1.26,3.79-2.11,7.4-4.19,14.81-6.46,22.84-2.79-5.73-5.4-11-7.95-16.31C237.1,423,233,413.1,227.83,403.79ZM469.92,675.53c-12.57,1.55-25.15,3.07-37.7,4.76-2.93.4-4.29-.62-5.27-3.3-4.91-13.52-9.94-27-15-40.46-2.1-5.59-4.32-11.14-6.49-16.7l-1.58.09c-.44,1.41-1,2.8-1.31,4.24-4,19.39-8,38.8-12.09,58.19-.94,4.5-2.76,7.74-8.16,8.8-6.52,1.27-12.78,3.9-19.16,5.89-1.44.45-2.94.69-4.35,1,8.23-38,12.15-76.29,25.27-111.32-49.63-23.83-92.39-57.29-134.5-91.13l41.62-37.67a56.73,56.73,0,0,1,19.47,25.77c1.49,3.78,2.36,7.22.82,11.18-.88,2.28-1.09,4.81-1.74,7.89L366.26,513l-20.2,30.28c23.77-7.11,45.71-17.31,67.25-29.3-1,8-2.93,15-8.43,21a33.48,33.48,0,0,0-6.4,10.86C397,549.65,397.05,554,396,558c-2.08,7.74,1.66,13.34,7.22,17.34,9.76,7,20.17,13.12,30.18,19.79,6.93,4.62,13,9.64,15.7,18.42,2.92,9.32,8,17.93,11.78,27,4.2,10.09,8,20.33,11.9,30.56C473.62,673.47,472.68,675.19,469.92,675.53Z" transform="translate(-61.39 -98.82)"/>
    <path d="M499.14,902.43l0,.05" transform="translate(-61.39 -98.82)"/>
    <path d="M441.36,420.88c3.14-1.14,7.3-2.36,11.2-4.13,5.43-2.47,6.56-6.21,2.45-10.53-7.33-7.7-15.23-14.86-23-22.09a77.63,77.63,0,0,0-9.8-7.73c-2-1.32-4.66-2.66-6.86-2.42-2.56.27-5.13,2-7.21,3.71-.35.29,1.43,3.78,2.72,5.4C420.77,395.53,430.83,407.87,441.36,420.88Z" transform="translate(-61.39 -98.82)"/>
    <path d="M499.08,739.79h.22V720.25A340.52,340.52,0,0,0,460,723.58c3.66,6.42,6.37,11.48,9.44,16.3a5,5,0,0,0,4,1.87,152.29,152.29,0,0,1,24.71-1.92C498.49,739.82,498.78,739.79,499.08,739.79Z" transform="translate(-61.39 -98.82)"/>
  </g>
</svg>
