<svg xmlns="http://www.w3.org/2000/svg" viewBox="0 0 2000 2000">
  <defs>
    <style>
      .cls-1 {
        fill: #1d1d1b;
      }

      .cls-2 {
        fill: none;
        stroke: #1d1d1b;
        stroke-miterlimit: 10;
        stroke-width: 40px;
      }
    </style>
  </defs>
  <g id="Calque_4" data-name="Calque 4">
    <path class="cls-1" d="M1304.4,1522.4a606,606,0,0,1-608.8,0H387.1q20.1,23.5,42.3,45.6a802.3,802.3,0,0,0,256.5,172.9c99.5,42.2,205.2,63.5,314.1,63.5s214.6-21.3,314.1-63.5A802.3,802.3,0,0,0,1570.6,1568q22.2-22.1,42.3-45.6ZM685.9,253.9A807.6,807.6,0,0,0,256.5,1311.6c7.6,18,15.9,35.7,24.7,53.1l128.6-225.2A605.4,605.4,0,0,1,393,997.4C393,724.5,574.1,493,822.4,416.9l128.5-225A796.7,796.7,0,0,0,685.9,253.9ZM1743.5,683.2a806.9,806.9,0,0,0-673.1-489.8l132.4,231.8C1438.1,508.9,1607,733.8,1607,997.4a608.6,608.6,0,0,1-11.1,116.1l132.4,231.9c5.3-11.1,10.4-22.4,15.2-33.8a809.1,809.1,0,0,0,0-628.4Z"/>
    <g>
      <circle class="cls-2" cx="1741.8" cy="1460.1" r="1"/>
      <circle class="cls-2" cx="1696.2" cy="1460.1" r="1"/>
      <circle class="cls-2" cx="1718.5" cy="1422.8" r="1"/>
      <circle class="cls-2" cx="1648.9" cy="1460.1" r="1"/>
      <circle class="cls-2" cx="1603.4" cy="1460.1" r="1"/>
      <circle class="cls-2" cx="1625.7" cy="1422.8" r="1"/>
      <circle class="cls-2" cx="1694.2" cy="1385.7" r="1"/>
      <circle class="cls-2" cx="1648.6" cy="1385.7" r="1"/>
      <circle class="cls-2" cx="1670.9" cy="1348.4" r="1"/>
      <circle class="cls-2" cx="1557.8" cy="1460.1" r="1"/>
      <circle class="cls-2" cx="1512.3" cy="1460.1" r="1"/>
      <circle class="cls-2" cx="1534.6" cy="1422.8" r="1"/>
      <circle class="cls-2" cx="1465" cy="1460.1" r="1"/>
      <circle class="cls-2" cx="1419.4" cy="1460.1" r="1"/>
      <circle class="cls-2" cx="1441.7" cy="1422.8" r="1"/>
      <circle class="cls-2" cx="1510.2" cy="1385.7" r="1"/>
      <circle class="cls-2" cx="1464.7" cy="1385.7" r="1"/>
      <circle class="cls-2" cx="1487" cy="1348.4" r="1"/>
      <circle class="cls-2" cx="1647.9" cy="1311.4" r="1"/>
      <circle class="cls-2" cx="1602.4" cy="1311.4" r="1"/>
      <circle class="cls-2" cx="1624.7" cy="1274.1" r="1"/>
      <circle class="cls-2" cx="1555.1" cy="1311.4" r="1"/>
      <circle class="cls-2" cx="1509.5" cy="1311.4" r="1"/>
      <circle class="cls-2" cx="1531.8" cy="1274.1" r="1"/>
      <circle class="cls-2" cx="1600.3" cy="1237" r="1"/>
      <circle class="cls-2" cx="1554.7" cy="1237" r="1"/>
      <circle class="cls-2" cx="1577" cy="1199.7" r="1"/>
      <circle class="cls-2" cx="1373.9" cy="1460.1" r="1"/>
      <circle class="cls-2" cx="1328.3" cy="1460.1" r="1"/>
      <circle class="cls-2" cx="1350.6" cy="1422.8" r="1"/>
      <circle class="cls-2" cx="1281" cy="1460.1" r="1"/>
      <circle class="cls-2" cx="1235.5" cy="1460.1" r="1"/>
      <circle class="cls-2" cx="1257.8" cy="1422.8" r="1"/>
      <circle class="cls-2" cx="1326.3" cy="1385.7" r="1"/>
      <circle class="cls-2" cx="1280.7" cy="1385.7" r="1"/>
      <circle class="cls-2" cx="1303" cy="1348.4" r="1"/>
      <circle class="cls-2" cx="1189.9" cy="1460.1" r="1"/>
      <circle class="cls-2" cx="1144.4" cy="1460.1" r="1"/>
      <circle class="cls-2" cx="1166.7" cy="1422.8" r="1"/>
      <circle class="cls-2" cx="1097.1" cy="1460.1" r="1"/>
      <circle class="cls-2" cx="1051.5" cy="1460.1" r="1"/>
      <circle class="cls-2" cx="1073.8" cy="1422.8" r="1"/>
      <circle class="cls-2" cx="1142.3" cy="1385.7" r="1"/>
      <circle class="cls-2" cx="1096.8" cy="1385.7" r="1"/>
      <circle class="cls-2" cx="1119" cy="1348.4" r="1"/>
      <circle class="cls-2" cx="1280" cy="1311.4" r="1"/>
      <circle class="cls-2" cx="1234.5" cy="1311.4" r="1"/>
      <circle class="cls-2" cx="1256.8" cy="1274.1" r="1"/>
      <circle class="cls-2" cx="1187.2" cy="1311.4" r="1"/>
      <circle class="cls-2" cx="1141.6" cy="1311.4" r="1"/>
      <circle class="cls-2" cx="1163.9" cy="1274.1" r="1"/>
      <circle class="cls-2" cx="1232.4" cy="1237" r="1"/>
      <circle class="cls-2" cx="1186.8" cy="1237" r="1"/>
      <circle class="cls-2" cx="1209.1" cy="1199.7" r="1"/>
      <circle class="cls-2" cx="1552.7" cy="1150.9" r="1"/>
      <circle class="cls-2" cx="1507.1" cy="1150.9" r="1"/>
      <circle class="cls-2" cx="1529.4" cy="1113.6" r="1"/>
      <circle class="cls-2" cx="1459.8" cy="1150.9" r="1"/>
      <circle class="cls-2" cx="1414.3" cy="1150.9" r="1"/>
      <circle class="cls-2" cx="1436.6" cy="1113.6" r="1"/>
      <circle class="cls-2" cx="1505" cy="1076.5" r="1"/>
      <circle class="cls-2" cx="1459.5" cy="1076.5" r="1"/>
      <circle class="cls-2" cx="1481.8" cy="1039.2" r="1"/>
      <circle class="cls-2" cx="1368.7" cy="1150.9" r="1"/>
      <circle class="cls-2" cx="1323.2" cy="1150.9" r="1"/>
      <circle class="cls-2" cx="1345.5" cy="1113.6" r="1"/>
      <circle class="cls-2" cx="1275.9" cy="1150.9" r="1"/>
      <circle class="cls-2" cx="1230.3" cy="1150.9" r="1"/>
      <circle class="cls-2" cx="1252.6" cy="1113.6" r="1"/>
      <circle class="cls-2" cx="1321.1" cy="1076.5" r="1"/>
      <circle class="cls-2" cx="1275.5" cy="1076.5" r="1"/>
      <circle class="cls-2" cx="1297.8" cy="1039.2" r="1"/>
      <circle class="cls-2" cx="1458.8" cy="1002.1" r="1"/>
      <circle class="cls-2" cx="1413.2" cy="1002.1" r="1"/>
      <circle class="cls-2" cx="1435.5" cy="964.8" r="1"/>
      <circle class="cls-2" cx="1366" cy="1002.1" r="1"/>
      <circle class="cls-2" cx="1320.4" cy="1002.1" r="1"/>
      <circle class="cls-2" cx="1342.7" cy="964.8" r="1"/>
      <circle class="cls-2" cx="1411.2" cy="927.7" r="1"/>
      <circle class="cls-2" cx="1365.6" cy="927.7" r="1"/>
      <circle class="cls-2" cx="1387.9" cy="890.4" r="1"/>
      <circle class="cls-2" cx="1006" cy="1460.1" r="1"/>
      <circle class="cls-2" cx="960.4" cy="1460.1" r="1"/>
      <circle class="cls-2" cx="982.7" cy="1422.8" r="1"/>
      <circle class="cls-2" cx="913.1" cy="1460.1" r="1"/>
      <circle class="cls-2" cx="867.6" cy="1460.1" r="1"/>
      <circle class="cls-2" cx="889.9" cy="1422.8" r="1"/>
      <circle class="cls-2" cx="958.4" cy="1385.7" r="1"/>
      <circle class="cls-2" cx="912.8" cy="1385.7" r="1"/>
      <circle class="cls-2" cx="935.1" cy="1348.4" r="1"/>
      <circle class="cls-2" cx="822" cy="1460.1" r="1"/>
      <circle class="cls-2" cx="776.5" cy="1460.1" r="1"/>
      <circle class="cls-2" cx="798.8" cy="1422.8" r="1"/>
      <circle class="cls-2" cx="729.2" cy="1460.1" r="1"/>
      <circle class="cls-2" cx="683.6" cy="1460.1" r="1"/>
      <circle class="cls-2" cx="705.9" cy="1422.8" r="1"/>
      <circle class="cls-2" cx="774.4" cy="1385.7" r="1"/>
      <circle class="cls-2" cx="728.9" cy="1385.7" r="1"/>
      <circle class="cls-2" cx="751.1" cy="1348.4" r="1"/>
      <circle class="cls-2" cx="912.1" cy="1311.4" r="1"/>
      <circle class="cls-2" cx="866.6" cy="1311.4" r="1"/>
      <circle class="cls-2" cx="888.9" cy="1274.1" r="1"/>
      <circle class="cls-2" cx="819.3" cy="1311.4" r="1"/>
      <circle class="cls-2" cx="773.7" cy="1311.4" r="1"/>
      <circle class="cls-2" cx="796" cy="1274.1" r="1"/>
      <circle class="cls-2" cx="864.5" cy="1237" r="1"/>
      <circle class="cls-2" cx="818.9" cy="1237" r="1"/>
      <circle class="cls-2" cx="841.2" cy="1199.7" r="1"/>
      <circle class="cls-2" cx="638.1" cy="1460.1" r="1"/>
      <circle class="cls-2" cx="592.5" cy="1460.1" r="1"/>
      <circle class="cls-2" cx="614.8" cy="1422.8" r="1"/>
      <circle class="cls-2" cx="545.2" cy="1460.1" r="1"/>
      <circle class="cls-2" cx="499.7" cy="1460.1" r="1"/>
      <circle class="cls-2" cx="522" cy="1422.8" r="1"/>
      <circle class="cls-2" cx="590.5" cy="1385.7" r="1"/>
      <circle class="cls-2" cx="544.9" cy="1385.7" r="1"/>
      <circle class="cls-2" cx="567.2" cy="1348.4" r="1"/>
      <circle class="cls-2" cx="454.1" cy="1460.1" r="1"/>
      <circle class="cls-2" cx="408.6" cy="1460.1" r="1"/>
      <circle class="cls-2" cx="430.9" cy="1422.8" r="1"/>
      <circle class="cls-2" cx="361.3" cy="1460.1" r="1"/>
      <circle class="cls-2" cx="315.7" cy="1460.1" r="1"/>
      <circle class="cls-2" cx="338" cy="1422.8" r="1"/>
      <circle class="cls-2" cx="406.5" cy="1385.7" r="1"/>
      <circle class="cls-2" cx="360.9" cy="1385.7" r="1"/>
      <circle class="cls-2" cx="383.2" cy="1348.4" r="1"/>
      <circle class="cls-2" cx="544.2" cy="1311.4" r="1"/>
      <circle class="cls-2" cx="498.7" cy="1311.4" r="1"/>
      <circle class="cls-2" cx="521" cy="1274.1" r="1"/>
      <circle class="cls-2" cx="451.4" cy="1311.4" r="1"/>
      <circle class="cls-2" cx="405.8" cy="1311.4" r="1"/>
      <circle class="cls-2" cx="428.1" cy="1274.1" r="1"/>
      <circle class="cls-2" cx="496.6" cy="1237" r="1"/>
      <circle class="cls-2" cx="451" cy="1237" r="1"/>
      <circle class="cls-2" cx="473.3" cy="1199.7" r="1"/>
      <circle class="cls-2" cx="816.9" cy="1150.9" r="1"/>
      <circle class="cls-2" cx="771.3" cy="1150.9" r="1"/>
      <circle class="cls-2" cx="793.6" cy="1113.6" r="1"/>
      <circle class="cls-2" cx="724" cy="1150.9" r="1"/>
      <circle class="cls-2" cx="678.5" cy="1150.9" r="1"/>
      <circle class="cls-2" cx="700.8" cy="1113.6" r="1"/>
      <circle class="cls-2" cx="769.2" cy="1076.5" r="1"/>
      <circle class="cls-2" cx="723.7" cy="1076.5" r="1"/>
      <circle class="cls-2" cx="746" cy="1039.2" r="1"/>
      <circle class="cls-2" cx="632.9" cy="1150.9" r="1"/>
      <circle class="cls-2" cx="587.4" cy="1150.9" r="1"/>
      <circle class="cls-2" cx="609.7" cy="1113.6" r="1"/>
      <circle class="cls-2" cx="540.1" cy="1150.9" r="1"/>
      <circle class="cls-2" cx="494.5" cy="1150.9" r="1"/>
      <circle class="cls-2" cx="516.8" cy="1113.6" r="1"/>
      <circle class="cls-2" cx="585.3" cy="1076.5" r="1"/>
      <circle class="cls-2" cx="539.7" cy="1076.5" r="1"/>
      <circle class="cls-2" cx="562" cy="1039.2" r="1"/>
      <circle class="cls-2" cx="723" cy="1002.1" r="1"/>
      <circle class="cls-2" cx="677.4" cy="1002.1" r="1"/>
      <circle class="cls-2" cx="699.7" cy="964.8" r="1"/>
      <circle class="cls-2" cx="630.2" cy="1002.1" r="1"/>
      <circle class="cls-2" cx="584.6" cy="1002.1" r="1"/>
      <circle class="cls-2" cx="606.9" cy="964.8" r="1"/>
      <circle class="cls-2" cx="675.4" cy="927.7" r="1"/>
      <circle class="cls-2" cx="629.8" cy="927.7" r="1"/>
      <circle class="cls-2" cx="652.1" cy="890.4" r="1"/>
      <circle class="cls-2" cx="1365.6" cy="853.3" r="1"/>
      <circle class="cls-2" cx="1320.1" cy="853.3" r="1"/>
      <circle class="cls-2" cx="1342.4" cy="816" r="1"/>
      <circle class="cls-2" cx="1272.8" cy="853.3" r="1"/>
      <circle class="cls-2" cx="1227.2" cy="853.3" r="1"/>
      <circle class="cls-2" cx="1249.5" cy="816" r="1"/>
      <circle class="cls-2" cx="1318" cy="778.9" r="1"/>
      <circle class="cls-2" cx="1272.4" cy="778.9" r="1"/>
      <circle class="cls-2" cx="1294.7" cy="741.6" r="1"/>
      <circle class="cls-2" cx="1181.7" cy="853.3" r="1"/>
      <circle class="cls-2" cx="1136.1" cy="853.3" r="1"/>
      <circle class="cls-2" cx="1158.4" cy="816" r="1"/>
      <circle class="cls-2" cx="1088.8" cy="853.3" r="1"/>
      <circle class="cls-2" cx="1043.3" cy="853.3" r="1"/>
      <circle class="cls-2" cx="1065.6" cy="816" r="1"/>
      <circle class="cls-2" cx="1134.1" cy="778.9" r="1"/>
      <circle class="cls-2" cx="1088.5" cy="778.9" r="1"/>
      <circle class="cls-2" cx="1110.8" cy="741.6" r="1"/>
      <circle class="cls-2" cx="1271.8" cy="704.5" r="1"/>
      <circle class="cls-2" cx="1226.2" cy="704.5" r="1"/>
      <circle class="cls-2" cx="1248.5" cy="667.2" r="1"/>
      <circle class="cls-2" cx="1178.9" cy="704.5" r="1"/>
      <circle class="cls-2" cx="1133.4" cy="704.5" r="1"/>
      <circle class="cls-2" cx="1155.7" cy="667.2" r="1"/>
      <circle class="cls-2" cx="1224.1" cy="630.2" r="1"/>
      <circle class="cls-2" cx="1178.6" cy="630.2" r="1"/>
      <circle class="cls-2" cx="1200.9" cy="592.9" r="1"/>
      <circle class="cls-2" cx="997.7" cy="853.3" r="1"/>
      <circle class="cls-2" cx="952.2" cy="853.3" r="1"/>
      <circle class="cls-2" cx="974.5" cy="816" r="1"/>
      <circle class="cls-2" cx="904.9" cy="853.3" r="1"/>
      <circle class="cls-2" cx="859.3" cy="853.3" r="1"/>
      <circle class="cls-2" cx="881.6" cy="816" r="1"/>
      <circle class="cls-2" cx="950.1" cy="778.9" r="1"/>
      <circle class="cls-2" cx="904.5" cy="778.9" r="1"/>
      <circle class="cls-2" cx="926.8" cy="741.6" r="1"/>
      <circle class="cls-2" cx="813.8" cy="853.3" r="1"/>
      <circle class="cls-2" cx="768.2" cy="853.3" r="1"/>
      <circle class="cls-2" cx="790.5" cy="816" r="1"/>
      <circle class="cls-2" cx="720.9" cy="853.3" r="1"/>
      <circle class="cls-2" cx="675.4" cy="853.3" r="1"/>
      <circle class="cls-2" cx="697.7" cy="816" r="1"/>
      <circle class="cls-2" cx="766.2" cy="778.9" r="1"/>
      <circle class="cls-2" cx="720.6" cy="778.9" r="1"/>
      <circle class="cls-2" cx="742.9" cy="741.6" r="1"/>
      <circle class="cls-2" cx="903.9" cy="704.5" r="1"/>
      <circle class="cls-2" cx="858.3" cy="704.5" r="1"/>
      <circle class="cls-2" cx="880.6" cy="667.2" r="1"/>
      <circle class="cls-2" cx="811" cy="704.5" r="1"/>
      <circle class="cls-2" cx="765.5" cy="704.5" r="1"/>
      <circle class="cls-2" cx="787.8" cy="667.2" r="1"/>
      <circle class="cls-2" cx="856.2" cy="630.2" r="1"/>
      <circle class="cls-2" cx="810.7" cy="630.2" r="1"/>
      <circle class="cls-2" cx="833" cy="592.9" r="1"/>
      <circle class="cls-2" cx="1176.5" cy="544.1" r="1"/>
      <circle class="cls-2" cx="1131" cy="544.1" r="1"/>
      <circle class="cls-2" cx="1153.3" cy="506.8" r="1"/>
      <circle class="cls-2" cx="1083.7" cy="544.1" r="1"/>
      <circle class="cls-2" cx="1038.1" cy="544.1" r="1"/>
      <circle class="cls-2" cx="1060.4" cy="506.8" r="1"/>
      <circle class="cls-2" cx="1128.9" cy="469.7" r="1"/>
      <circle class="cls-2" cx="1083.3" cy="469.7" r="1"/>
      <circle class="cls-2" cx="1105.6" cy="432.4" r="1"/>
      <circle class="cls-2" cx="992.6" cy="544.1" r="1"/>
      <circle class="cls-2" cx="947" cy="544.1" r="1"/>
      <circle class="cls-2" cx="969.3" cy="506.8" r="1"/>
      <circle class="cls-2" cx="899.7" cy="544.1" r="1"/>
      <circle class="cls-2" cx="854.2" cy="544.1" r="1"/>
      <circle class="cls-2" cx="876.5" cy="506.8" r="1"/>
      <circle class="cls-2" cx="944.9" cy="469.7" r="1"/>
      <circle class="cls-2" cx="899.4" cy="469.7" r="1"/>
      <circle class="cls-2" cx="921.7" cy="432.4" r="1"/>
      <circle class="cls-2" cx="1082.6" cy="395.3" r="1"/>
      <circle class="cls-2" cx="1037.1" cy="395.3" r="1"/>
      <circle class="cls-2" cx="1059.4" cy="358" r="1"/>
      <circle class="cls-2" cx="989.8" cy="395.3" r="1"/>
      <circle class="cls-2" cx="944.3" cy="395.3" r="1"/>
      <circle class="cls-2" cx="966.5" cy="358" r="1"/>
      <circle class="cls-2" cx="1035" cy="320.9" r="1"/>
      <circle class="cls-2" cx="989.5" cy="320.9" r="1"/>
      <circle class="cls-2" cx="1011.8" cy="283.6" r="1"/>
    </g>
  </g>
</svg>
