<svg id="Calque_1" data-name="Calque 1" xmlns="http://www.w3.org/2000/svg" viewBox="0 0 2000 2000">
  <defs>
    <style>
      .cls-1 {
        fill: #1d1d1b;
      }
    </style>
  </defs>
  <path class="cls-1" d="M510.7,765a60.3,60.3,0,0,0-9.7,84.6l10.8,13.5a507.2,507.2,0,0,1,78.3-161.2ZM952.1,461.9a60.2,60.2,0,0,0-66.7,5.4l-82.6,65.6A504.5,504.5,0,0,1,1000,493h8.2Zm440.6,877.8-7.9-9.9a510.4,510.4,0,0,1-118.6,101.5l4.3,5.4a58.1,58.1,0,0,0,81.7,9.4l31.1-24.7A58.3,58.3,0,0,0,1392.7,1339.7Zm0,0-7.9-9.9a510.4,510.4,0,0,1-118.6,101.5l4.3,5.4a58.1,58.1,0,0,0,81.7,9.4l31.1-24.7A58.3,58.3,0,0,0,1392.7,1339.7ZM952.1,461.9a60.2,60.2,0,0,0-66.7,5.4l-82.6,65.6A504.5,504.5,0,0,1,1000,493h8.2ZM510.7,765a60.3,60.3,0,0,0-9.7,84.6l10.8,13.5a507.2,507.2,0,0,1,78.3-161.2Zm0,0a60.3,60.3,0,0,0-9.7,84.6l10.8,13.5a507.2,507.2,0,0,1,78.3-161.2ZM952.1,461.9a60.2,60.2,0,0,0-66.7,5.4l-82.6,65.6A504.5,504.5,0,0,1,1000,493h8.2Zm440.6,877.8-7.9-9.9a510.4,510.4,0,0,1-118.6,101.5l4.3,5.4a58.1,58.1,0,0,0,81.7,9.4l31.1-24.7A58.3,58.3,0,0,0,1392.7,1339.7Zm0,0-7.9-9.9a510.4,510.4,0,0,1-118.6,101.5l4.3,5.4a58.1,58.1,0,0,0,81.7,9.4l31.1-24.7A58.3,58.3,0,0,0,1392.7,1339.7ZM952.1,461.9a60.2,60.2,0,0,0-66.7,5.4l-82.6,65.6A504.5,504.5,0,0,1,1000,493h8.2ZM510.7,765a60.3,60.3,0,0,0-9.7,84.6l10.8,13.5a507.2,507.2,0,0,1,78.3-161.2Zm0,0a60.3,60.3,0,0,0-9.7,84.6l10.8,13.5a507.2,507.2,0,0,1,78.3-161.2ZM952.1,461.9a60.2,60.2,0,0,0-66.7,5.4l-82.6,65.6A504.5,504.5,0,0,1,1000,493h8.2Zm440.6,877.8-7.9-9.9a510.4,510.4,0,0,1-118.6,101.5l4.3,5.4a58.1,58.1,0,0,0,81.7,9.4l31.1-24.7A58.3,58.3,0,0,0,1392.7,1339.7Zm0,0-7.9-9.9a510.4,510.4,0,0,1-118.6,101.5l4.3,5.4a58.1,58.1,0,0,0,81.7,9.4l31.1-24.7A58.3,58.3,0,0,0,1392.7,1339.7ZM885.4,467.3l-82.6,65.6A504.5,504.5,0,0,1,1000,493h8.2l-56.1-31.2A60.2,60.2,0,0,0,885.4,467.3ZM501,849.6l10.8,13.5a507.2,507.2,0,0,1,78.3-161.2L510.7,765A60.3,60.3,0,0,0,501,849.6ZM1651.4,724.8A708.9,708.9,0,1,0,1707,1000,704.4,704.4,0,0,0,1651.4,724.8Zm-229.2,555.6,17.4,22a118.1,118.1,0,0,1-19,166l-31,24.7a118.9,118.9,0,0,1-73.5,25.6,117.5,117.5,0,0,1-92.5-44.6l-11-13.9A504,504,0,0,1,1000,1507c-279.6,0-507-227.4-507-507a511.8,511.8,0,0,1,3.5-59.7l-42.4-53.4A120.3,120.3,0,0,1,473.4,718L848,420.3a120.7,120.7,0,0,1,133.3-10.9L1154,505.5a122.4,122.4,0,0,1,27.6,21.1C1371.7,599.8,1507,784.4,1507,1000A503.5,503.5,0,0,1,1422.2,1280.4Zm-156,150.9,4.3,5.4a58.1,58.1,0,0,0,81.7,9.4l31.1-24.7a58.3,58.3,0,0,0,9.4-81.7l-7.9-9.9A510.4,510.4,0,0,1,1266.2,1431.3Zm-380.8-964-82.6,65.6A504.5,504.5,0,0,1,1000,493h8.2l-56.1-31.2A60.2,60.2,0,0,0,885.4,467.3ZM501,849.6l10.8,13.5a507.2,507.2,0,0,1,78.3-161.2L510.7,765A60.3,60.3,0,0,0,501,849.6Zm9.7-84.6a60.3,60.3,0,0,0-9.7,84.6l10.8,13.5a507.2,507.2,0,0,1,78.3-161.2ZM952.1,461.9a60.2,60.2,0,0,0-66.7,5.4l-82.6,65.6A504.5,504.5,0,0,1,1000,493h8.2Zm440.6,877.8-7.9-9.9a510.4,510.4,0,0,1-118.6,101.5l4.3,5.4a58.1,58.1,0,0,0,81.7,9.4l31.1-24.7A58.3,58.3,0,0,0,1392.7,1339.7Zm0,0-7.9-9.9a510.4,510.4,0,0,1-118.6,101.5l4.3,5.4a58.1,58.1,0,0,0,81.7,9.4l31.1-24.7A58.3,58.3,0,0,0,1392.7,1339.7ZM952.1,461.9a60.2,60.2,0,0,0-66.7,5.4l-82.6,65.6A504.5,504.5,0,0,1,1000,493h8.2ZM510.7,765a60.3,60.3,0,0,0-9.7,84.6l10.8,13.5a507.2,507.2,0,0,1,78.3-161.2Zm0,0a60.3,60.3,0,0,0-9.7,84.6l10.8,13.5a507.2,507.2,0,0,1,78.3-161.2ZM952.1,461.9a60.2,60.2,0,0,0-66.7,5.4l-82.6,65.6A504.5,504.5,0,0,1,1000,493h8.2Zm440.6,877.8-7.9-9.9a510.4,510.4,0,0,1-118.6,101.5l4.3,5.4a58.1,58.1,0,0,0,81.7,9.4l31.1-24.7A58.3,58.3,0,0,0,1392.7,1339.7Zm0,0-7.9-9.9a510.4,510.4,0,0,1-118.6,101.5l4.3,5.4a58.1,58.1,0,0,0,81.7,9.4l31.1-24.7A58.3,58.3,0,0,0,1392.7,1339.7ZM952.1,461.9a60.2,60.2,0,0,0-66.7,5.4l-82.6,65.6A504.5,504.5,0,0,1,1000,493h8.2ZM510.7,765a60.3,60.3,0,0,0-9.7,84.6l10.8,13.5a507.2,507.2,0,0,1,78.3-161.2Zm0,0a60.3,60.3,0,0,0-9.7,84.6l10.8,13.5a507.2,507.2,0,0,1,78.3-161.2ZM952.1,461.9a60.2,60.2,0,0,0-66.7,5.4l-82.6,65.6A504.5,504.5,0,0,1,1000,493h8.2Zm0,0a60.2,60.2,0,0,0-66.7,5.4l-82.6,65.6A504.5,504.5,0,0,1,1000,493h8.2ZM510.7,765a60.3,60.3,0,0,0-9.7,84.6l10.8,13.5a507.2,507.2,0,0,1,78.3-161.2Z"/>
  <g>
    <path class="cls-1" d="M1383.3,1421.4l-31.1,24.7a58.1,58.1,0,0,1-81.7-9.4l-4.3-5.4-391-492.1-37.3-47-47,37.3-16.7-21.1c-40.6-51-32-125.5,19-166l31-24.7a118.7,118.7,0,0,1,73.5-25.6,117.5,117.5,0,0,1,92.5,44.6l16.8,21.1-47,37.4,37.3,46.9,387.5,487.7,7.9,9.9A58.3,58.3,0,0,1,1383.3,1421.4Z"/>
    <path class="cls-1" d="M1383.3,1421.4l-31.1,24.7a58.1,58.1,0,0,1-81.7-9.4l-4.3-5.4-391-492.1-37.3-47-16.8-21.1a58.2,58.2,0,0,1,9.4-81.7l31-24.7a58.1,58.1,0,0,1,81.7,9.4L960,795.2l37.3,46.9,387.5,487.7,7.9,9.9A58.3,58.3,0,0,1,1383.3,1421.4Z"/>
    <g>
      <path class="cls-1" d="M1133,657.7,1007,757.8l-47,37.4,37.3,46.9L875.2,939.2l-37.3-47-47,37.3-91.6,72.8a60.2,60.2,0,0,1-84.6-9.7L511.8,863.1,501,849.6a60.3,60.3,0,0,1,9.7-84.6l79.4-63.1,212.7-169,82.6-65.6a60.2,60.2,0,0,1,66.7-5.4l56.1,31.2L1124.8,558C1162.3,578.8,1166.6,631,1133,657.7Z"/>
      <path class="cls-1" d="M1133,657.7,1007,757.8l-47,37.4-122.1,97-47,37.3-91.6,72.8a60.2,60.2,0,0,1-84.6-9.7L511.8,863.1,501,849.6a60.3,60.3,0,0,1,9.7-84.6l79.4-63.1,212.7-169,82.6-65.6a60.2,60.2,0,0,1,66.7-5.4l56.1,31.2L1124.8,558C1162.3,578.8,1166.6,631,1133,657.7Z"/>
    </g>
  </g>
</svg>
