<svg xmlns="http://www.w3.org/2000/svg" viewBox="0 0 2000 2000">
  <defs>
    <style>
      .cls-1 {
        fill: #1d1d1b;
      }
    </style>
  </defs>
  <g id="Calque_3" data-name="Calque 3">
    <path class="cls-1" d="M393,1000q0-16.5.9-32.7c-55.5,66.5-81,163.5-81,276.9,0,215.7,80.4,283.5,296.1,283.5a821.6,821.6,0,0,0,84-4.2C513.6,1417.9,393,1222.8,393,1000ZM1743.5,685.8a803,803,0,0,0-172.9-256.4c-16.1-16.2-32.8-31.5-50-46.1a559.2,559.2,0,0,1,.4,68.3c-.7,12.1-1.9,23.6-3.6,34.7l3.4,2.1-.8,2.8c89.9,72,173.4,193.6,230.9,337.5,25.4,63.4,44.2,127.5,55.9,189.3.1-6,.2-12,.2-18A802.6,802.6,0,0,0,1743.5,685.8ZM1460.4,383c-7.2-57.2-60.1-82.8-125.8-88.6-31.7-2.9-66.5-1.1-100.4,3.9a72.6,72.6,0,0,0-9.3,4.3h0c-7.6,2.4-15.6,5.6-23.9,8.9-31.7,12.7-44,67.5-36.1,104.3,11,3.1,21.9,6.5,32.6,10.2,4.9,1.7,9.8,3.4,14.7,5.3,15.6,5.8,30.9,12.3,45.9,19.3l7.9,3.9a597.1,597.1,0,0,1,56,31.1,615.1,615.1,0,0,1,101.6,80l2.1-2.8,2-2.8,2-2.9.2-.3,1.6-2.5a4.3,4.3,0,0,1,.4-.7l.2-.3a9.5,9.5,0,0,0,1-1.7l.7-1.1,1.1-1.9,1.1-2,1.1-1.9,1.5-2.9h0v-.2c.5-.8.9-1.7,1.3-2.5a11.7,11.7,0,0,1,.5-1.1l.9-1.9h0l.6-1.4,1.2-2.7,1.3-3.1,1.1-2.7c0-.1.1-.2.1-.3a13.4,13.4,0,0,1,.7-1.8l.6-1.7a11.2,11.2,0,0,1,.5-1.3,2.5,2.5,0,0,1,.2-.7l.7-1.9a.4.4,0,0,1,.1-.3,10.9,10.9,0,0,0,.5-1.7l.6-1.8c6.4-20.2,10.1-42.5,11.5-66.6A490.1,490.1,0,0,0,1460.4,383ZM1257.9,235.1A802.1,802.1,0,0,0,1000,193c-108.9,0-214.6,21.3-314.1,63.5A807.8,807.8,0,0,0,255.8,1312.7c-1.9-21.2-2.9-43.9-2.9-68.5,0-60,6.6-115.4,19.8-164.7,14.3-53.4,36.3-100.1,65.5-138.6A312.7,312.7,0,0,1,406,874.7C463.9,599.9,708.2,393,1000,393a613.3,613.3,0,0,1,102.9,8.7,193.2,193.2,0,0,1,4.9-53.9c10.8-45.4,36-78,70.9-92,7.2-2.8,14.6-5.8,22.3-8.5,15.3-5.3,31.6-9.6,48.7-9.6a97.9,97.9,0,0,1,24.5,3.1C1268.8,238.8,1263.3,236.9,1257.9,235.1ZM1695.2,851c-50.8-127.2-121.6-231.9-193.8-296.9a426.6,426.6,0,0,0-33.7-27.4c-.8,2.4-1.7,4.7-2.6,7a175,175,0,0,1-26.7,46.9q13.6,14.3,26.4,29.4c88.7,105.6,142.2,241.7,142.2,390a608.8,608.8,0,0,1-10.7,113.7,592.1,592.1,0,0,1-23.6,87.4h0q-8.7,25.1-19.7,49.1a608.7,608.7,0,0,1-76.8,125.8c-12.8,16.1-26.3,31.6-40.6,46.3a631.5,631.5,0,0,1-49.5,45.8l4.2-1.2,3.1-.9,11.4-3.5,2.2-.7,4.5-1.6,3.3-1.2,1.7-.6h0l1-.4,2-.8,1.9-.7,1-.4,3.6-1.4c0-.1.1-.1.2-.1l2.4-1,.5-.3c1.4-.5,2.7-1.2,4.1-1.8l3.7-1.7,1-.4,3.9-1.9,4.2-2.2,4.1-2.2,3.9-2.2h.2l3.3-2,4.9-3c3.8-2.4,7.4-4.9,11-7.5l1.6-1.3.8-.6,1.6-1.2c2.1-1.6,4.1-3.3,6.1-5l2.2-1.9c1.2-.9,2.3-2,3.4-3l.9-.8,1.9-1.8,1-1c3.1-3.1,6.2-6.3,9.1-9.6l1.1-1.3c2.5-2.9,4.9-5.9,7.2-8.9l1.4-1.9a200.8,200.8,0,0,0,22,5.1,211.9,211.9,0,0,0,43.9,2.8c27.9-1.1,57.4-7.6,88.4-20C1780.2,1332.2,1793.3,1096.3,1695.2,851ZM1580,1457.8c-3.7.2-7.5.3-11.2.3a272.3,272.3,0,0,1-35.1-2.3c-30.1,29.1-68.5,50.8-116.1,65.6l-.5.5-15.5,4.1c-38.2,10.3-81.6,16.6-135.6,19.5a606.8,606.8,0,0,1-478.9,23c-53.2,12.7-113.1,19.2-178.1,19.2-79.2,0-141.1-8.9-190.3-28,3.5,3.7,7.1,7.3,10.7,10.9a806.4,806.4,0,0,0,1141.2,0,796.3,796.3,0,0,0,107.7-133.2C1645,1449.7,1612,1456.6,1580,1457.8Z"/>
    <g>
      <path class="cls-1" d="M1027.7,1295.8c-5.5,31.8-15.7,61-30.3,87.2-15.6,28.1-36.6,52.9-62.4,74.2-7.9-2.6-15.6-5.4-23-8.5a323.7,323.7,0,0,1-62.7,36.2c-45.9,20.3-99.2,32.7-156.3,38.6h0a821.6,821.6,0,0,1-84,4.2c-215.7,0-296.1-67.8-296.1-283.5,0-113.4,25.5-210.4,81-276.9h0C444,907.1,518.6,871.9,621,871.9c78.3,0,151.1,19.5,212.2,54.7A366.6,366.6,0,0,1,884.4,962c78.2,64.4,127.3,159.9,127.3,274.2,0,7.6-.3,15-.7,22.3Z"/>
      <path class="cls-1" d="M1071.7,1236.2c0,8.9-.3,17.7-.8,26.2-3.2,50.1-15.8,95.8-37.3,135.8a295.7,295.7,0,0,1-53.9,71.3,429.7,429.7,0,0,1-44.7-12.3c-7.9-2.6-15.6-5.4-23-8.5a323.7,323.7,0,0,1-62.7,36.2c-45.9,20.3-99.2,32.7-156.3,38.6h0a821.6,821.6,0,0,1-84,4.2c-215.7,0-296.1-67.8-296.1-283.5,0-113.4,25.5-210.4,81-276.9h0C444,907.1,518.6,871.9,621,871.9c78.3,0,151.1,19.5,212.2,54.7A366.6,366.6,0,0,1,884.4,962c78.2,64.4,127.3,159.9,127.3,274.2,0,7.6-.3,15-.7,22.3l16.7,37.3a346.6,346.6,0,0,0,4.9-59.6c0-55.5-10.9-108.2-32.5-156.5a364.2,364.2,0,0,0-88.8-122.1c-3.8-3.5-7.7-6.9-11.7-10.3a372.4,372.4,0,0,1,30.6-25.2C1021.5,1001.1,1071.7,1112.2,1071.7,1236.2Z"/>
      <path class="cls-1" d="M1011.7,1236.2c0,7.6-.3,15-.7,22.3-5.4,85.7-42.2,147.6-99,190.2a323.7,323.7,0,0,1-62.7,36.2c-45.9,20.3-99.2,32.7-156.3,38.6h0a821.6,821.6,0,0,1-84,4.2c-215.7,0-296.1-67.8-296.1-283.5,0-113.4,25.5-210.4,81-276.9h0C444,907.1,518.6,871.9,621,871.9c78.3,0,151.1,19.5,212.2,54.7A366.6,366.6,0,0,1,884.4,962C962.6,1026.4,1011.7,1121.9,1011.7,1236.2Z"/>
      <path class="cls-1" d="M1574.2,1236.2c0,65.5-13.3,118.1-40.5,158.9a200.8,200.8,0,0,1-22-5.1l-1.4,1.9c-2.3,3-4.7,6-7.2,8.9l-1.1,1.3c-2.9,3.3-6,6.5-9.1,9.6l-1,1-1.9,1.8-.9.8c-1.1,1-2.2,2.1-3.4,3l-2.2,1.9c-2,1.7-4,3.4-6.1,5l-1.6,1.2-.8.6-1.6,1.3c-3.6,2.6-7.2,5.1-11,7.5l-4.9,3-3.3,2h-.2l-3.9,2.2-4.1,2.2-4.2,2.2-3.9,1.9-1,.4-3.7,1.7c-1.4.6-2.7,1.3-4.1,1.8l-.5.3-2.4,1c-.1,0-.2,0-.2.1l-3.6,1.4-1,.4-1.9.7-2,.8-1,.4h0l-1.7.6-3.3,1.2-4.5,1.6-2.2.7-11.4,3.5-3.1.9-4.2,1.2h0c-56.1,15-123.8,19.4-199.5,19.4-73.3,0-144.6-4.1-206.9-18a429.7,429.7,0,0,1-44.7-12.3c-7.9-2.6-15.6-5.4-23-8.5-84.4-34.7-140.1-98.4-140.1-212.5A388.9,388.9,0,0,1,884.4,962c78.2,64.4,127.3,159.9,127.3,274.2,0,7.6-.3,15-.7,22.3l16.7,37.3a346.6,346.6,0,0,0,4.9-59.6c0-55.5-10.9-108.2-32.5-156.5a364.2,364.2,0,0,0-88.8-122.1c-3.8-3.5-7.7-6.9-11.7-10.3a372.4,372.4,0,0,1,30.6-25.2,389,389,0,0,1,232.4-76.6c11.3,0,22.5.5,33.5,1.5a383.9,383.9,0,0,1,62,10.3c102.7,25.8,189.2,92.3,241.5,181.3l29.1,9.3h0c4.7,9.1,9.1,18.5,13.2,28a408.3,408.3,0,0,1,30.8,125.2h0Q1574.2,1218.5,1574.2,1236.2Z"/>
      <path class="cls-1" d="M1613.2,1236.2c0,5.5,0,10.8-.2,15.9-1.8,57.4-13.5,105.5-35.4,145.8a211.9,211.9,0,0,1-43.9-2.8,200.8,200.8,0,0,1-22-5.1l-1.4,1.9c-2.3,3-4.7,6-7.2,8.9l-1.1,1.3c-2.9,3.3-6,6.5-9.1,9.6l-1,1-1.9,1.8-.9.8c-1.1,1-2.2,2.1-3.4,3l-2.2,1.9c-2,1.7-4,3.4-6.1,5l-1.6,1.2-.8.6-1.6,1.3c-3.6,2.6-7.2,5.1-11,7.5l-4.9,3-3.3,2h-.2l-3.9,2.2-4.1,2.2-4.2,2.2-3.9,1.9-1,.4-3.7,1.7c-1.4.6-2.7,1.3-4.1,1.8l-.5.3-2.4,1c-.1,0-.2,0-.2.1l-3.6,1.4-1,.4-1.9.7-2,.8-1,.4h0l-1.7.6-3.3,1.2-4.5,1.6-2.2.7-11.4,3.5-3.1.9-4.2,1.2h0c-56.1,15-123.8,19.4-199.5,19.4-73.3,0-144.6-4.1-206.9-18a429.7,429.7,0,0,1-44.7-12.3c-7.9-2.6-15.6-5.4-23-8.5a323.7,323.7,0,0,1-62.7,36.2c-36.4-20.7-65.9-46.8-88-78-32.8-46.3-49.4-103.7-49.4-170.7A449.2,449.2,0,0,1,812.3,952.6l-3.9-3.4,24.8-22.6A366.6,366.6,0,0,1,884.4,962c78.2,64.4,127.3,159.9,127.3,274.2,0,7.6-.3,15-.7,22.3l16.7,37.3a346.6,346.6,0,0,0,4.9-59.6c0-55.5-10.9-108.2-32.5-156.5a364.2,364.2,0,0,0-88.8-122.1c-3.8-3.5-7.7-6.9-11.7-10.3a372.4,372.4,0,0,1,30.6-25.2,389,389,0,0,1,232.4-76.6c11.3,0,22.5.5,33.5,1.5a383.9,383.9,0,0,1,62,10.3c102.7,25.8,189.2,92.3,241.5,181.3l29.1,9.3A411.6,411.6,0,0,0,1255.2,835c-1.7-13.6-3.3-27.3-4.8-40.9,7.5,1.5,14.9,3.1,22.3,5a447,447,0,0,1,161.2,77.2,452,452,0,0,1,117.5,131.9,450.5,450.5,0,0,1,61.8,228Z"/>
      <path class="cls-1" d="M1553.2,1236.2c0,4.7,0,9.4-.2,14-1.9,60.4-16.4,105.8-41.3,139.8l-1.4,1.9c-2.3,3-4.7,6-7.2,8.9l-1.1,1.3c-2.9,3.3-6,6.5-9.1,9.6l-1,1-1.9,1.8-.9.8c-1.1,1-2.2,2.1-3.4,3l-2.2,1.9c-2,1.7-4,3.4-6.1,5l-1.6,1.2-.8.6-1.6,1.3c-3.6,2.6-7.2,5.1-11,7.5l-4.9,3-3.3,2h-.2l-3.9,2.2-4.1,2.2-4.2,2.2-3.9,1.9-1,.4-3.7,1.7c-1.4.6-2.7,1.3-4.1,1.8l-.5.3-2.4,1c-.1,0-.2,0-.2.1l-3.6,1.4-1,.4-1.9.7-2,.8-1,.4h0l-1.7.6-3.3,1.2-4.5,1.6-2.2.7-11.4,3.5-3.1.9-4.2,1.2h0c-56.1,15-123.8,19.4-199.5,19.4-73.3,0-144.6-4.1-206.9-18a429.7,429.7,0,0,1-44.7-12.3c-7.9-2.6-15.6-5.4-23-8.5-84.4-34.7-140.1-98.4-140.1-212.5A388.9,388.9,0,0,1,884.4,962c78.2,64.4,127.3,159.9,127.3,274.2,0,7.6-.3,15-.7,22.3l16.7,37.3a346.6,346.6,0,0,0,4.9-59.6c0-55.5-10.9-108.2-32.5-156.5a364.2,364.2,0,0,0-88.8-122.1c-3.8-3.5-7.7-6.9-11.7-10.3a372.4,372.4,0,0,1,30.6-25.2,389,389,0,0,1,232.4-76.6c11.3,0,22.5.5,33.5,1.5a383.9,383.9,0,0,1,62,10.3c102.7,25.8,189.2,92.3,241.5,181.3A388.2,388.2,0,0,1,1553.2,1236.2Z"/>
      <path class="cls-1" d="M1461.1,448c-1.4,24.1-5.1,46.4-11.5,66.6l-.6,1.8a10.9,10.9,0,0,1-.5,1.7.4.4,0,0,0-.1.3l-.7,1.9a2.5,2.5,0,0,0-.2.7,11.2,11.2,0,0,0-.5,1.3l-.6,1.7a13.4,13.4,0,0,0-.7,1.8c0,.1-.1.2-.1.3l-1.1,2.7-1.3,3.1-1.2,2.7-.6,1.4h0l-.9,1.9a11.7,11.7,0,0,0-.5,1.1c-.4.8-.8,1.7-1.3,2.5v.2h0l-1.5,2.9-1.1,1.9-1.1,2-1.1,1.9-.7,1.1a9.5,9.5,0,0,1-1,1.7l-.2.3a4.3,4.3,0,0,0-.4.7l-1.6,2.5-.2.3-2,2.9-2,2.8-2.1,2.8-1.2,1.5-.4.5-.6.8-.6.7-1.1,1.3-1.1,1.3-1.1,1.2h-.1c-.5.7-1.1,1.3-1.6,1.9s-1.1,1.2-1.7,1.7l-1.2,1.3c-1,1-1.9,2-2.9,2.9l-1,.9c0,.1-.1.1-.1.2l-.4.3-1.6,1.5h-.1l-1.9,1.7-1.7,1.5h-.2l-2.4,2-2.1,1.7,3.3,23.4a184.1,184.1,0,0,1-34.2,17.8,92.9,92.9,0,0,1-34.6,7c-30.4,0-58.7-15.6-84.5-46.4a249.4,249.4,0,0,1,5.7-26.9c-16.9-23.9-29.2-50.7-36.7-68.5-.8-2.1-1.6-4-2.3-5.7-1.9-4.6-3.3-8.3-4.3-10.8,7.2-13.5,5.6-30.7,1.3-49.4-1.1-4.8-2.4-9.7-3.7-14.7-11.7-42.9-28.9-89.8,16.4-114h0a72.6,72.6,0,0,1,9.3-4.3c33.9-5,68.7-6.8,100.4-3.9,65.7,5.8,118.6,31.4,125.8,88.6A490.1,490.1,0,0,1,1461.1,448Z"/>
      <path class="cls-1" d="M1249.7,237.7c-17.1,0-33.4,4.3-48.7,9.6l8.9-4.7h2l6.6-2.6,6.9-1.1c11-1.6,21.8-2.9,32.5-3.8,5.4,1.8,10.9,3.7,16.3,5.7A97.9,97.9,0,0,0,1249.7,237.7Z"/>
      <path class="cls-1" d="M1291.1,247.1c-5.6-2.2-11.3-4.3-16.9-6.3A83.7,83.7,0,0,1,1291.1,247.1Z"/>
      <path class="cls-1" d="M1501.4,554.1v8.1l-11,10.2-2.1,4.2-.3.4-.2.4-.5.4c0,.1,0,.1-.1.1a25.8,25.8,0,0,1-1.8,3.2l-.9,1.5-1.4,2.4c-.4.5-.7,1.1-1.1,1.7l-1.9,2.9-.3.5c-1,1.6-2,2.9-2.9,4.3l-2.8,3.9-2.9,3.9-1.7,2.1-.5.6-1,1.3-.8,1-1.5,1.8-.9,1-.5.6-1.6,1.9-1.3,1.5-.3.3-1.1,1.1-2.3,2.5-2,2.1-3.9,3.8-1.4,1.3-.3.3-.8.8-1.2,1.2-1.7,1.5-.4.3-1.8,1.6c-.1,0-.1.1-.2.2l-.3.3-2.1,1.8-3.4,2.7-2.9,2.3h-.1a218.4,218.4,0,0,1-53.1,30.1A132.5,132.5,0,0,1,1333,678c-24,0-56.2-7-89.5-35.2a424.4,424.4,0,0,1,5-50.2,249.4,249.4,0,0,1,5.7-26.9c-16.9-23.9-29.2-50.7-36.7-68.5-.8-2.1-1.6-4-2.3-5.7-1.9-4.6-3.3-8.3-4.3-10.8,7.2-13.5,5.6-30.7,1.3-49.4-4.9-1.9-9.8-3.6-14.7-5.3-14.5,14.4-18.9,27-29,1.8a94.2,94.2,0,0,1-3.6-12c-7.9-36.8,4.4-91.6,36.1-104.3,8.3-3.3,16.3-6.5,23.9-8.9h0a72.6,72.6,0,0,1,9.3-4.3c33.9-5,68.7-6.8,100.4-3.9,65.7,5.8,118.6,31.4,125.8,88.6a490.1,490.1,0,0,1,.7,65c-1.4,24.1-5.1,46.4-11.5,66.6l-.6,1.8a10.9,10.9,0,0,1-.5,1.7.4.4,0,0,0-.1.3l-.7,1.9a2.5,2.5,0,0,0-.2.7,11.2,11.2,0,0,0-.5,1.3l-.6,1.7a13.4,13.4,0,0,0-.7,1.8c0,.1-.1.2-.1.3l-1.1,2.7-1.3,3.1-1.2,2.7-.6,1.4h0l-.9,1.9a11.7,11.7,0,0,0-.5,1.1c-.4.8-.8,1.7-1.3,2.5v.2h0l-1.5,2.9-1.1,1.9-1.1,2-1.1,1.9-.7,1.1a9.5,9.5,0,0,1-1,1.7l-.2.3a4.3,4.3,0,0,0-.4.7l-1.6,2.5-.2.3-2,2.9-2,2.8-2.1,2.8c5,4.9,10,9.9,14.8,15a175,175,0,0,0,26.7-46.9c.9-2.3,1.8-4.6,2.6-7A426.6,426.6,0,0,1,1501.4,554.1Z"/>
      <path class="cls-1" d="M1461.1,448c-1.4,24.1-5.1,46.4-11.5,66.6l-.6,1.8a10.9,10.9,0,0,1-.5,1.7.4.4,0,0,0-.1.3l-.7,1.9a2.5,2.5,0,0,0-.2.7,11.2,11.2,0,0,0-.5,1.3l-.6,1.7a13.4,13.4,0,0,0-.7,1.8c0,.1-.1.2-.1.3l-1.1,2.7-1.3,3.1-1.2,2.7-.6,1.4h0l-.9,1.9a11.7,11.7,0,0,0-.5,1.1c-.4.8-.8,1.7-1.3,2.5v.2h0l-1.5,2.9-1.1,1.9-1.1,2-1.1,1.9-.7,1.1a9.5,9.5,0,0,1-1,1.7l-.2.3a4.3,4.3,0,0,0-.4.7l-1.6,2.5-.2.3-2,2.9-2,2.8-2.1,2.8-1.2,1.5-.4.5-.6.8-.6.7-1.1,1.3-1.1,1.3-1.1,1.2h-.1c-.5.7-1.1,1.3-1.6,1.9s-1.1,1.2-1.7,1.7l-1.2,1.3c-1,1-1.9,2-2.9,2.9l-1,.9c0,.1-.1.1-.1.2l-.4.3-1.6,1.5h-.1l-1.9,1.7-1.7,1.5h-.2l-2.4,2-2.1,1.7a163.5,163.5,0,0,1-38.6,21.8c-44.8,17.8-80.4-11.2-105.7-46.9-16.9-23.9-29.2-50.7-36.7-68.5-.8-2.1-1.6-4-2.3-5.7-1.9-4.6-3.3-8.3-4.3-10.8,7.2-13.5,5.6-30.7,1.3-49.4-1.1-4.8-2.4-9.7-3.7-14.7-11.7-42.9-28.9-89.8,16.4-114h0a72.6,72.6,0,0,1,9.3-4.3c33.9-5,68.7-6.8,100.4-3.9,65.7,5.8,118.6,31.4,125.8,88.6A490.1,490.1,0,0,1,1461.1,448Z"/>
      <path class="cls-1" d="M1291.1,247.1c-5.6-2.2-11.3-4.3-16.9-6.3A83.7,83.7,0,0,1,1291.1,247.1Z"/>
      <path class="cls-1" d="M1317.1,410a153.5,153.5,0,0,1-18.1,19.9h0a185.1,185.1,0,0,1-33,24.6,168.2,168.2,0,0,1-22.6,11c-1.6.7-5.3,4.8-8,7.8s-4.3,4.8-7.2,7.6h-.1a85,85,0,0,1-12.9,10.6c-1.9-4.6-3.3-8.3-4.3-10.8,7.2-13.5,5.6-30.7,1.3-49.4-4.9-1.9-9.8-3.6-14.7-5.3-14.5,14.4-18.9,27-29,1.8a94.2,94.2,0,0,1-3.6-12c-7.9-36.8,4.4-91.6,36.1-104.3,8.3-3.3,16.3-6.5,23.9-8.9h0a72.6,72.6,0,0,1,9.3-4.3c33.9-5,68.7-6.8,100.4-3.9a46.8,46.8,0,0,1,1.9,4.5C1350.9,334.8,1343.8,375.3,1317.1,410Z"/>
      <path class="cls-1" d="M1221.1,409.8a65.2,65.2,0,0,0-12.6,6.8,75,75,0,0,0-11,9.4c-14.5,14.4-18.9,27-29,1.8a94.2,94.2,0,0,1-3.6-12c-7.9-36.8,4.4-91.6,36.1-104.3,8.3-3.3,16.3-6.5,23.9-8.9h0c24.8-8.1,45.1-8.6,55.9,18.5C1295,356.6,1256.5,395.7,1221.1,409.8Z"/>
      <path class="cls-1" d="M1666,1377.9c-31,12.4-60.5,18.9-88.4,20a211.9,211.9,0,0,1-43.9-2.8,200.8,200.8,0,0,1-22-5.1l-1.4,1.9c-2.3,3-4.7,6-7.2,8.9l-1.1,1.3c-2.9,3.3-6,6.5-9.1,9.6l-1,1-1.9,1.8-.9.8c-1.1,1-2.2,2.1-3.4,3l-2.2,1.9c-2,1.7-4,3.4-6.1,5l-1.6,1.2-.8.6-1.6,1.3c-3.6,2.6-7.2,5.1-11,7.5-4.5-1.9-8.9-4-13.3-6.2s-9-4.7-13.5-7.3c-55.2-31.8-101.9-83.2-139-153.2-36.1-68.3-61.2-150.4-74.6-244.2-2.6-18.3-5.6-37.9-8.7-58.6-4-26.6-8.2-54-12.1-82.2h-.3l-3.6-28.7-1.2-8.4a383.9,383.9,0,0,1,62,10.3c102.7,25.8,189.2,92.3,241.5,181.3l29.1,9.3A411.6,411.6,0,0,0,1255.2,835c-1.7-13.6-3.3-27.3-4.8-40.9-5.6-53-8.9-105.2-6.9-151.3a424.4,424.4,0,0,1,5-50.2,249.4,249.4,0,0,1,5.7-26.9c-16.9-23.9-29.2-50.7-36.7-68.5,2.9-5,6-9.8,9.2-14.3a24.3,24.3,0,0,0,1.4-2h.1a141,141,0,0,1,29.9-30.3,131.8,131.8,0,0,1,30.3-16.8c3.4-1.4,7-2.7,10.6-3.9h0c2.4-.8,4.9-1.5,7.3-2.1a171.1,171.1,0,0,1,45.5-6c26.7,0,54.2,5.7,82.2,17.2l2.9-8.6,24.2,17.6c-1.4,24.1-5.1,46.4-11.5,66.6l-.6,1.8a10.9,10.9,0,0,1-.5,1.7.4.4,0,0,0-.1.3l-.7,1.9a2.5,2.5,0,0,0-.2.7,11.2,11.2,0,0,0-.5,1.3l-.6,1.7a13.4,13.4,0,0,0-.7,1.8c0,.1-.1.2-.1.3l-1.1,2.7-1.3,3.1-1.2,2.7-.6,1.4h0l-.9,1.9a11.7,11.7,0,0,0-.5,1.1c-.4.8-.8,1.7-1.3,2.5v.2h0l-1.5,2.9-1.1,1.9-1.1,2-1.1,1.9-.7,1.1a9.5,9.5,0,0,1-1,1.7l-.2.3a4.3,4.3,0,0,0-.4.7l-1.6,2.5-.2.3-2,2.9-2,2.8-2.1,2.8c5,4.9,10,9.9,14.8,15a175,175,0,0,0,26.7-46.9c.9-2.3,1.8-4.6,2.6-7a426.6,426.6,0,0,1,33.7,27.4c72.2,65,143,169.7,193.8,296.9C1793.3,1096.3,1780.2,1332.2,1666,1377.9Z"/>
      <path class="cls-1" d="M1666,1377.9c-31,12.4-60.5,18.9-88.4,20a211.9,211.9,0,0,1-43.9-2.8,200.8,200.8,0,0,1-22-5.1,197,197,0,0,1-35.5-14c-102.1-51.5-170.5-188.7-194.8-359.6-6.7-47.1-15.7-102.4-23.3-159.1,102.7,25.8,189.2,92.3,241.5,181.3l29.1,9.3A411.6,411.6,0,0,0,1255.2,835c-1.7-13.6-3.3-27.3-4.8-40.9-5.6-53-8.9-105.2-6.9-151.3a424.4,424.4,0,0,1,5-50.2,249.4,249.4,0,0,1,5.7-26.9c10.1-37.5,27.9-64.8,56.4-76.2q5.7-2.2,11.4-3.9c38.4-10.5,82.5.6,127.6,29l-.6,1.8a10.9,10.9,0,0,1-.5,1.7.4.4,0,0,0-.1.3l-.7,1.9a2.5,2.5,0,0,0-.2.7,11.2,11.2,0,0,0-.5,1.3l-.6,1.7a13.4,13.4,0,0,0-.7,1.8c0,.1-.1.2-.1.3l-1.1,2.7-1.3,3.1-1.2,2.7-.6,1.4h0l-.9,1.9a11.7,11.7,0,0,0-.5,1.1c-.4.8-.8,1.7-1.3,2.5v.2h0l-1.5,2.9-1.1,1.9-1.1,2-1.1,1.9-.7,1.1a9.5,9.5,0,0,1-1,1.7l-.2.3a4.3,4.3,0,0,0-.4.7l-1.6,2.5-.2.3-2,2.9-2,2.8-2.1,2.8-1.2,1.5-.4.5-.6.8-.6.7-1.1,1.3-1.1,1.3-1.1,1.2h-.1c-.5.7-1.1,1.3-1.6,1.9s-1.1,1.2-1.7,1.7l-1.2,1.3c-1,1-1.9,2-2.9,2.9l-1,.9c0,.1-.1.1-.1.2l-.4.3-1.6,1.5h-.1l-1.9,1.7-1.7,1.5h-.2l-2.4,2-2.1,1.7,3.3,23.4a162.7,162.7,0,0,0,36.6-33.6,175,175,0,0,0,26.7-46.9c.9-2.3,1.8-4.6,2.6-7a426.6,426.6,0,0,1,33.7,27.4c72.2,65,143,169.7,193.8,296.9C1793.3,1096.3,1780.2,1332.2,1666,1377.9Z"/>
    </g>
  </g>
</svg>
