<svg xmlns="http://www.w3.org/2000/svg" viewBox="0 0 1071.6 1071.6">
  <defs>
    <style>
      .cls-1 {
        fill: none;
        stroke: #000;
        stroke-miterlimit: 10;
        stroke-width: 100px;
      }
    </style>
  </defs>
  <g id="Calque_1" data-name="Calque 1">
    <path d="M930.8,167.8c-5,3.7-10,7.5-15.1,11-11.5,8-23.2,15.7-34.6,23.7-8.1,5.8-16,11.9-23.8,18.1-15.5,12.3-31.3,24.2-46.2,37.1s-26.1,24.8-39,37.3a12.1,12.1,0,0,0-1.6,1.6c-6.4,6.3-12.9,12.6-19.2,19.1-4.1,4.4-7.8,9.1-12,14l-1.4-2.1c-5-11.9-10.1-23.7-15-35.6s-13.3-23.6-21.8-34.1c-3.3-4.1-5.5-8.1-6.1-13.6-1.8-14.6-4.6-29.1-7-43.7-.7-4.3-1.1-8.7-1.8-14.2-13,9.5-19.5,23.6-31.2,32.9-14.8-24.9-25.6-51.3-36.1-79.4l-30.1,47.3-32.7-55.5c-3.9,11.9-7.8,23.9-11.6,35.8-3.7-4.8-7.6-9.3-10.8-14.2C526.6,142,520,130.4,512.8,119c-4.1-6.6-8.8-13-13.6-20a3.6,3.6,0,0,1-.7,1l.3,274.6h1.1a4.3,4.3,0,0,0,2.1-.5,141.4,141.4,0,0,0,11.6-10.4c12-11.9,23.8-24,35.9-35.9,9.4-9.3,18.8-18.6,28.6-27.5,14.4-13.1,29-25.9,43.7-38.7,5.8-5,12.1-9.5,18.2-14.2a27.4,27.4,0,0,1,2.8-.8c-2.4,16.3-4.7,31.6-7,47l1.1.8c7-5.8,13.8-11.7,20.9-17.3s14.8-11,22.6-16.8c-1.7,13-3.4,25.6-5.1,38.5l29.1-8.9c.5,6.1-3.9,8.2-6.7,11.1s-4.1,3.5-5.9,5.4c-10.5,10.5-20.8,21.2-31.2,31.8l-4.4,4.8c28.9,11.2,52.9,30.1,79.8,45.5l-2,1.8c-26.4,12-52.7,24.4-79.3,35.9-23.9,10.4-48.2,19.9-72.4,29.4-10.7,4.2-21.7,7.5-32.6,11-6.9,2.2-12.7-.2-17.4-5.2-9.7-10.2-18.5-21-22.5-34.9-.9-2.9-2.7-4.2-5.5-4.2h-5.5v41.6c0-.1.1-.1.3-.1v-.5l.4.6a.2.2,0,0,1,.2.2,210.3,210.3,0,0,0,30.5,28.2c2.3,1.7,2.7,3,1.3,5.4q-5.6,9.2-10.5,18.6a20.6,20.6,0,0,0,.2,20.9c.3.6,1.2.9,1.8,1.3,10-14.2,22.5-24.9,39.8-29.5-5.9,11.7-13,22.5-15.6,35.2l.9,1.3L585,529c-4.6,8.9-2.5,16.8-1.9,24.7.2,1.7-1.1,4.6-2.6,5.3-13.3,6.5-26.9,12.6-40.2,19.2-2.2,1.1-4,4.1-5,6.6-4.2,10.2-7.9,20.6-12.1,30.7-2.4,5.8-5.7,11.1-8.4,16.7s-9.2,9.5-15.7,9.6v-.2H499v52.9h.5c48.4.3,97.2,8.8,146.1,24.8L624,739l-2,1.7c-8.5,8.4-16.6,17.1-25.3,25.2-14.4,13.3-29.2,26.2-43.6,39.6-16.1,14.9-34.3,20.9-53.9,20.6v76.4L609.8,797v72.4a4.7,4.7,0,0,0,3.3-2.3c7.7-12.5,15.2-25.1,22.8-37.7a8.6,8.6,0,0,0,1-1.6c5.8-10.4,12.4-20.5,17.2-31.4a363.5,363.5,0,0,0,14.1-39.5c4.7-15.1,8.4-30.4,12.5-45.7,1.6-6.1,4-11.6,8.8-16.1,6.6-6.2,12.5-13.2,19.3-19.1s11.8-8.3,17.7-12.6c1.2-.8,2.6-2.5,2.6-3.9.2-24,.1-48,.1-72l29.1-11.7c.1,1.6.1,3,.3,4.3,1.1,10.2,8.3,16,18.4,15a42.7,42.7,0,0,0,30.3-16.2,28,28,0,0,0,6.3-21.6c-.8-8-2.2-15.9-3-23.8-.4-3.9,1.1-7.1,4-10.3,5.5-6.1,11-12.6,14.8-19.9,5.4-10.2,9.6-21,13.6-31.9,5.1-13.9,9.7-28.1,14.2-42.2s9.9-30.8,14.5-46.3c5.8-19.3,11.2-38.6,16.9-57.8,4.1-13.9,8.3-27.9,12.6-41.7,5.5-17.8,11.2-35.5,16.6-53.2s10.1-33.9,15.1-50.9c1.4-4.8,2.5-9.7,4.1-15.7ZM584.1,481.2c26-12.4,52.7-22.4,79.9-32,.8,12.9-13.1,32.7-25.3,38.5C616.8,498.3,594.4,490.7,584.1,481.2Zm30.2,105.5c13.1,35.1,17,73.4,25.3,111.4-1.5-.4-3-.6-4.4-1.1-6.4-2-12.6-4.6-19.2-5.9s-7.2-4.2-8.1-8.8q-6.1-28.9-12.1-58.1c-.3-1.5-.9-2.9-1.3-4.3h-1.6c-2.2,5.6-4.4,11.1-6.5,16.7-5,13.5-10.1,27-15,40.5-.9,2.7-2.3,3.7-5.2,3.3l-37.7-4.8c-2.8-.3-3.7-2-2.9-4.3,3.9-10.3,7.7-20.5,11.9-30.6s8.9-17.7,11.8-27,8.8-13.8,15.7-18.4c10-6.7,20.4-12.8,30.2-19.8,5.6-4,9.3-9.6,7.2-17.4-1.1-4-1-8.4-2.5-12.2a35.2,35.2,0,0,0-6.4-10.9c-5.5-5.9-7.4-12.9-8.4-20.9,21.5,12,43.5,22.2,67.2,29.3-6.8-10.3-13.7-20.5-20.2-30.3l56.5-10.2c-.6-3.1-.8-5.6-1.7-7.9-1.6-4-.7-7.4.8-11.2a57.6,57.6,0,0,1,19.5-25.8l41.6,37.7C706.7,529.5,663.9,562.9,614.3,586.7ZM795,572.5c-.4,4.2-2.4,6.9-6.4,8.2l-10.8,3.8c.4-9.4,1.1-18.1,1.2-26.9a74.6,74.6,0,0,0-6.7-30.8c-1.2-2.9-3.4-5.4-5.2-8.1s-1-3.8,1.5-4.9l4.8-2.2c5.3-2.6,9.3-1.5,11.8,3.9A112.7,112.7,0,0,1,795,572.5Zm-29.1-73.3c.8-1.9,1.1-4.2,2.3-5.8,2.6-3.5,5.8-6.6,8.6-10.1s6.8-8.7,10.5-13.3c2.4,4.5,5.1,9.3,7.8,14.4l-27.4,16.5Zm60.6-67.3c-.3,10.4-6.7,18.1-13.6,25.2-1.5,1.5-2.7,3.2-4.1,4.8l-.7-.2c-2.5-3.1-6.5-5.9-7-9.3s3-6.9,4.2-10.6c3.8-12.2,5.4-24.7,3.6-37.5-.4-2.7,0-5.6,0-8.3l14.9-5.9c.6,2.7,1.5,5.5,1.6,8.3C826,409.6,826.7,420.7,826.5,431.9ZM887.2,235c-9.7,12.2-19.7,24.1-29.3,36.4s-19.6,25.3-28.8,38.4-19.6,28.3-28.7,42.9c-10.3,16.8-20.2,33.9-29.8,51.1-5.2,9.3-9.3,19.2-13.9,28.8l-8,16.3c-2.2-8-4.3-15.4-6.4-22.8-.4-1.3-.5-2.9-1.3-3.8-4-4.6-.9-7.3,2.3-10.3,5.6-5.3,11.2-10.6,16.5-16.2s4-4.7-.7-8.2-9.6-7.4-14.6-10.9c-2.3-1.5-2.6-2.9-1.2-5,8.2-11.9,15.6-24.3,24.5-35.6a295.5,295.5,0,0,1,28.1-31c14.2-13.7,29.2-26.6,44.1-39.6,8.6-7.5,17.5-14.7,26.6-21.6s17-12.1,25.6-18.1l1,1.1C891.2,229.6,889.3,232.4,887.2,235ZM499.1,720.2v19.6h0V720.2ZM557,420.9c-3.1-1.2-7.3-2.4-11.2-4.2s-6.5-6.2-2.4-10.5c7.3-7.7,15.2-14.8,23-22.1a81,81,0,0,1,9.8-7.7c2-1.3,4.7-2.7,6.9-2.4s5.1,2,7.2,3.7c.3.3-1.4,3.8-2.7,5.4ZM538.4,723.6c-3.7,6.4-6.4,11.5-9.5,16.3a4.6,4.6,0,0,1-4,1.8,161,161,0,0,0-25-1.9h-.8V720.3A330.7,330.7,0,0,1,538.4,723.6Zm-39.1-3.4v19.6h0V720.2Zm0-78.4c-6.5-.1-12.9-3.6-15.7-9.6s-6-10.9-8.4-16.7c-4.2-10.1-7.9-20.5-12.1-30.7-1-2.5-2.8-5.5-5-6.6-13.3-6.6-26.9-12.7-40.2-19.2-1.5-.7-2.8-3.6-2.6-5.3.6-7.9,2.7-15.8-1.9-24.7l36.8,16.7.9-1.3c-2.6-12.7-9.7-23.5-15.6-35.2,17.3,4.6,29.8,15.3,39.8,29.5.6-.4,1.5-.7,1.8-1.3a20.6,20.6,0,0,0,.2-20.9q-4.9-9.5-10.5-18.6c-1.4-2.4-1-3.7,1.3-5.4a199.7,199.7,0,0,0,31.1-29v.4h.3V422.5h-5.5c-2.8,0-4.6,1.3-5.5,4.2-4,13.9-12.9,24.7-22.5,34.9-4.7,5-10.5,7.4-17.4,5.2-10.9-3.5-21.9-6.8-32.6-11-24.2-9.5-48.5-19-72.4-29.4-26.6-11.5-52.9-23.9-79.3-35.9l-2-1.8c26.8-15.4,50.8-34.3,79.8-45.5l-4.4-4.8-31.2-31.8c-1.8-1.9-4.1-3.5-5.9-5.4s-7.2-5-6.7-11.1l29.1,8.9c-1.7-12.9-3.4-25.5-5.2-38.5,7.9,5.8,15.4,11.2,22.7,16.8s13.9,11.5,20.8,17.3l1.1-.8c-2.2-15.4-4.5-30.7-6.9-47l2.8.8c6.1,4.7,12.4,9.2,18.2,14.2,14.7,12.8,29.3,25.6,43.7,38.7,9.8,8.9,19.2,18.2,28.6,27.5,12.1,11.9,23.9,24,35.9,35.9a141.4,141.4,0,0,0,11.6,10.4,4.1,4.1,0,0,0,2.1.5h1.1l.3-274.7h0l-.4-.7h0l-.2-.3c-4.8,7.1-9.5,13.5-13.7,20.2-7.2,11.4-13.8,23-20.9,34.3-3.2,4.9-7.1,9.4-10.8,14.2-3.8-11.9-7.8-23.9-11.6-35.8l-32.7,55.5-30.1-47.3c-10.5,28.1-21.3,54.5-36.1,79.4-11.7-9.3-18.2-23.4-31.2-32.9-.7,5.5-1.2,9.9-1.8,14.2-2.4,14.6-5.2,29.1-7,43.7-.7,5.5-2.9,9.5-6.1,13.6-8.5,10.5-16.5,21.4-21.8,34.1s-10,23.7-15.1,35.6c-.2.5-.6.9-1.3,2.1-4.2-4.9-7.9-9.6-12.1-14-6.2-6.5-12.7-12.8-19.1-19.1a12.1,12.1,0,0,0-1.6-1.6c-13-12.5-25.5-25.5-39-37.3s-30.7-24.8-46.2-37.1c-7.8-6.2-15.7-12.3-23.8-18.1-11.4-8-23.1-15.7-34.6-23.7-5.1-3.5-10.1-7.3-15.1-11l-6.2-4.2c1.6,6,2.7,10.9,4.1,15.7,5,17,9.9,34,15.1,50.9s11.1,35.4,16.6,53.2c4.3,13.8,8.5,27.8,12.6,41.7,5.7,19.2,11.1,38.5,16.9,57.8,4.6,15.5,9.5,30.9,14.5,46.3s9.1,28.3,14.2,42.2c4,10.9,8.2,21.7,13.6,31.9,3.8,7.3,9.3,13.8,14.8,19.9,2.9,3.2,4.3,6.4,4,10.3-.9,7.9-2.2,15.8-3.1,23.8a28.8,28.8,0,0,0,6.3,21.6,43.1,43.1,0,0,0,30.4,16.2c10.1,1,17.3-4.8,18.4-15,.2-1.3.2-2.7.3-4.3l29.1,11.7c0,24-.1,48,.1,72,0,1.4,1.4,3.1,2.6,3.9,5.8,4.3,12.3,7.9,17.7,12.6s12.7,12.9,19.3,19.1c4.8,4.5,7.2,10,8.8,16.1,4.1,15.3,7.8,30.6,12.5,45.7a363.5,363.5,0,0,0,14.1,39.5c4.8,10.9,11.4,21,17.2,31.4l.9,1.6q11.4,18.9,22.9,37.7a4.7,4.7,0,0,0,3.3,2.3V797L499.1,902.5V826.1c-19.6.3-37.8-5.7-54-20.6-14.3-13.4-29.1-26.3-43.5-39.6-8.7-8.1-16.9-16.8-25.3-25.2l-2-1.7-21.7-19.7c49-16,98-24.6,146.5-24.8h.1V641.6h-.1ZM334.4,449.2c27.2,9.6,53.9,19.6,79.9,32-10.4,9.5-32.7,17.1-54.6,6.5C347.5,481.9,333.6,462.1,334.4,449.2Zm-137.1,3.2c-.6,3.4-4.5,6.2-7,9.3l-.8.2a59.8,59.8,0,0,0-4-4.8c-6.9-7.1-13.3-14.8-13.6-25.2s.5-22.3,1-33.5a58.2,58.2,0,0,1,1.7-8.3l14.9,5.9c0,2.7.4,5.6,0,8.3-1.8,12.8-.2,25.3,3.6,37.5C194.3,445.5,197.8,449.2,197.3,452.4Zm34,66.3c-1.8,2.7-4,5.2-5.2,8.1a74.6,74.6,0,0,0-6.7,30.8c.1,8.8.8,17.5,1.2,26.9l-10.8-3.8c-4-1.3-6-4-6.4-8.2a112.7,112.7,0,0,1,9.8-57c2.5-5.4,6.5-6.5,11.8-3.9l4.8,2.2C232.3,514.9,232.8,516.5,231.3,518.7Zm-.6-17.8-27.4-16.5q4-7.6,7.8-14.4c3.6,4.6,7,9,10.5,13.3s6,6.6,8.6,10.1c1.2,1.6,1.5,3.9,2.2,5.8A13.7,13.7,0,0,1,230.7,500.9Zm-2.9-97.1c-9.6-17.2-19.5-34.3-29.9-51.1-9-14.6-18.6-28.9-28.6-42.9s-19-25.8-28.8-38.4-19.6-24.2-29.4-36.4c-2-2.6-3.9-5.4-5.9-8.1l1-1.1c8.6,6,17.3,11.8,25.6,18.1s18,14.1,26.6,21.6c14.9,13,29.9,25.9,44.1,39.6a295.5,295.5,0,0,1,28.1,31c8.8,11.3,16.3,23.7,24.4,35.6,1.5,2.1,1.2,3.5-1.1,5-5,3.5-9.8,7.2-14.7,10.9s-4.8,3.8-.6,8.2,10.9,10.9,16.5,16.2c3.2,3,6.3,5.7,2.3,10.3-.8.9-.9,2.5-1.3,3.8-2.1,7.4-4.2,14.8-6.4,22.8l-8-16.3C237.1,423,233,413.1,227.8,403.8ZM469.9,675.5l-37.7,4.8c-2.9.4-4.3-.6-5.2-3.3l-15-40.5c-2.1-5.6-4.4-11.1-6.5-16.7h-1.6c-.4,1.4-1,2.8-1.3,4.3-4.1,19.4-8,38.8-12.1,58.1-.9,4.6-2.8,7.8-8.2,8.8s-12.7,3.9-19.1,5.9c-1.5.5-3,.7-4.4,1.1,8.3-38,12.2-76.3,25.3-111.4-49.6-23.8-92.4-57.2-134.5-91.1l41.6-37.7a57.6,57.6,0,0,1,19.5,25.8c1.5,3.8,2.3,7.2.8,11.2-.9,2.3-1.1,4.8-1.7,7.9L366.3,513c-6.6,9.8-13.4,20-20.2,30.3,23.7-7.1,45.7-17.3,67.2-29.3-1,8-2.9,15-8.4,20.9a33.3,33.3,0,0,0-6.4,10.9C397,549.6,397,554,396,558c-2.1,7.8,1.6,13.4,7.2,17.4,9.8,7,20.2,13.1,30.2,19.8,6.9,4.6,12.9,9.6,15.7,18.4s8,17.9,11.7,27,8.1,20.3,11.9,30.6C473.6,673.5,472.7,675.2,469.9,675.5Zm29.2,227h.2M410.8,383.1c-1.3-1.6-3-5.1-2.7-5.4,2.1-1.7,4.7-3.5,7.2-3.7s4.9,1.1,6.9,2.4a89.6,89.6,0,0,1,9.8,7.7c7.8,7.3,15.7,14.4,23,22.1,4.1,4.3,3,8.1-2.4,10.5s-8.1,3-11.2,4.2Zm87.4,356.7a158.1,158.1,0,0,0-24.7,1.9,4.6,4.6,0,0,1-4-1.8c-3.1-4.8-5.8-9.9-9.5-16.3a330.7,330.7,0,0,1,39.3-3.3v19.5h-1.1Z" transform="translate(35.4 35.4)"/>
  </g>
  <g id="Calque_3" data-name="Calque 3">
    <line class="cls-1" x1="360.1" y1="710.6" x2="35.4" y2="1035.4"/>
    <line class="cls-1" x1="1035.4" y1="35.4" x2="746.2" y2="324.5"/>
    <rect x="756.4" y="335.5" width="32.9" height="32.89"/>
    <line class="cls-1" x1="711.6" y1="711.6" x2="1036.3" y2="1036.3"/>
    <line class="cls-1" x1="36.3" y1="36.3" x2="325.4" y2="325.4"/>
    <rect x="249.6" y="304.5" width="32.9" height="32.89" transform="translate(-19.5 622.3) rotate(-90)"/>
  </g>
</svg>
