<svg id="Calque_1" data-name="Calque 1" xmlns="http://www.w3.org/2000/svg" viewBox="0 0 784.1 514.8">
  <defs>
    <style>
      .cls-1 {
        fill: #a5afaf;
      }

      .cls-2 {
        fill: #eaeaea;
      }

      .cls-3 {
        fill: #4bc7df;
      }

      .cls-4 {
        fill: #ddd;
      }

      .cls-5 {
        fill: #c5c9c9;
      }

      .cls-6 {
        fill: #a3a3a3;
      }

      .cls-7 {
        fill: #d8d8d8;
      }

      .cls-8 {
        fill: #ccdadb;
      }

      .cls-10, .cls-11, .cls-9 {
        fill: none;
      }

      .cls-9 {
        stroke: #4f4f4f;
      }

      .cls-10, .cls-9 {
        stroke-miterlimit: 10;
      }

      .cls-10 {
        stroke: #a5a5a5;
      }

      .cls-11 {
        stroke: #000;
        stroke-linecap: round;
        stroke-linejoin: round;
        stroke-width: 0.5px;
      }
    </style>
  </defs>
  <g>
    <g>
      <polygon class="cls-1" points="664.6 166.4 783.8 514.4 741.8 484.4 643.2 196.4 664.6 166.4"/>
      <polygon class="cls-2" points="783.8 514.4 0.3 514.4 42.3 484.4 741.8 484.4 783.8 514.4"/>
      <path class="cls-3" d="M751.5,473l98.7,288H150.6l98.7-288H334c0-91.8,74.6-166.4,166.4-166.4S666.9,381.2,666.9,473ZM394,473H606.9A106.5,106.5,0,0,0,394,473Z" transform="translate(-108.3 -276.6)"/>
      <polygon class="cls-4" points="664.6 166.4 643.2 196.4 558.5 196.4 586.2 166.4 664.6 166.4"/>
      <path class="cls-4" d="M694.6,443l-27.7,30c0-91.8-74.7-166.4-166.5-166.4S334,381.2,334,473l-27.8-30c14.5-94.1,96.1-166.4,194.2-166.4S680.1,348.9,694.6,443Z" transform="translate(-108.3 -276.6)"/>
      <polygon class="cls-5" points="498.5 196.4 285.6 196.4 321.7 166.4 462.4 166.4 498.5 196.4"/>
      <path class="cls-6" d="M606.9,473l-36.2-30a76.5,76.5,0,0,0-140.6,0L394,473a106.5,106.5,0,0,1,212.9,0Z" transform="translate(-108.3 -276.6)"/>
      <polygon class="cls-7" points="197.9 166.4 225.6 196.4 141 196.4 119.5 166.4 197.9 166.4"/>
      <polygon class="cls-8" points="119.5 166.4 141 196.4 42.3 484.4 0.3 514.4 119.5 166.4"/>
    </g>
    <g>
      <line class="cls-9" x1="141" y1="196.4" x2="119.5" y2="166.4"/>
      <line class="cls-9" x1="42.3" y1="484.4" x2="0.3" y2="514.4"/>
      <line class="cls-9" x1="643.2" y1="196.4" x2="664.6" y2="166.4"/>
      <line class="cls-9" x1="783.8" y1="514.4" x2="741.8" y2="484.4"/>
      <line class="cls-9" x1="197.9" y1="166.4" x2="225.6" y2="196.4"/>
      <line class="cls-10" x1="321.7" y1="166.4" x2="285.6" y2="196.4"/>
      <line class="cls-10" x1="462.4" y1="166.4" x2="498.5" y2="196.4"/>
      <line class="cls-11" x1="558.5" y1="196.4" x2="586.2" y2="166.4"/>
    </g>
  </g>
</svg>
