<svg xmlns="http://www.w3.org/2000/svg" viewBox="0 0 1000 1000">
  <defs>
    <style>
      .cls-1 {
        fill: none;
        stroke: #1d1d1b;
        stroke-miterlimit: 10;
        stroke-width: 50px;
      }
    </style>
  </defs>
  <g id="Armure">
    <path class="cls-1" d="M499.79,281.09s-98.35,1.33-160.9-41.34c15.35,176-107.69,173.11-104.92,176s58.86,156,0,344c93.4,62.67,265.82,80.83,265.82,80.83"/>
    <path class="cls-1" d="M337.66,236.75s-108.33-18.66-78.47-77.33c-87,48.89-131.36,130.67-131.36,130.67S49.35,419,92,472.77c58-63.57,143.09-57.19,143.09-57.19"/>
    <path class="cls-1" d="M489.63,281.09s98.34,1.33,160.9-41.34c-15.36,176,107.69,173.11,104.92,176s-58.86,156,0,344C662,822.42,489.63,840.58,489.63,840.58"/>
    <path class="cls-1" d="M651.75,236.75s108.33-18.66,78.48-77.33c87,48.89,131.36,130.67,131.36,130.67S940.06,419,897.41,472.77c-58-63.57-143.08-57.19-143.08-57.19"/>
    <path class="cls-1" d="M260,614.1s239.8-56.93,239.8-333"/>
    <path class="cls-1" d="M739.24,611.16s-239.8-56.93-239.8-333"/>
    <path class="cls-1" d="M259.74,712.5q248-75.39,480.52,0"/>
  </g>
</svg>
