<svg xmlns="http://www.w3.org/2000/svg" viewBox="0 0 1000 1000">
  <defs>
    <style>
      .cls-1 {
        fill: none;
        stroke: #1b1b1b;
        stroke-miterlimit: 10;
        stroke-width: 50px;
      }
    </style>
  </defs>
  <g id="Autre">
    <path class="cls-1" d="M592.5,560.13a212.16,212.16,0,0,1-1.39,27.33q-1.38,10.13-5.52,15.19T573.44,609a137.87,137.87,0,0,1-21.27,1.31H422.91q-12.17,0-18.79-6.61t-6.62-15q0-23.34.83-41T400.81,517a129.15,129.15,0,0,1,4.44-22,46.37,46.37,0,0,1,7.2-14.54,153,153,0,0,1,35.19-33,327.35,327.35,0,0,1,40.16-23.13q20.47-9.89,40.43-18.28a210.72,210.72,0,0,0,35.19-18.5,88.56,88.56,0,0,0,24.66-24q9.42-13.87,9.42-34.59a53.09,53.09,0,0,0-7.78-27.3,82.7,82.7,0,0,0-20.81-23.34,104.26,104.26,0,0,0-30.55-16.08,112,112,0,0,0-36.36-6,108.17,108.17,0,0,0-66.62,22.91,83.76,83.76,0,0,0-21.11,24.22,56.24,56.24,0,0,0-7.77,28.2v10.13a11.19,11.19,0,0,1-6.66,10.79q-6.64,3.31-16.61,4.19a165,165,0,0,1-21.32.44c-7.57-.28-14.32-.44-20.22-.44H245.88q-13.86,0-19.11-5.95t-5.27-12.11V324q0-46.24,23-84.81t61.47-66.36q38.47-27.78,89.14-43.22a362,362,0,0,1,106-15.44q57,0,107.41,16.33t88.31,45.21q37.92,28.88,59.79,68.32a174,174,0,0,1,21.88,85.71q0,31.73-8,55.06a143.58,143.58,0,0,1-50.94,70.7A333.33,333.33,0,0,1,685.22,478q-17.44,9.92-34.05,18.28a231.12,231.12,0,0,0-29.61,17.61,90.28,90.28,0,0,0-21,20.27Q592.49,545.16,592.5,560.13Zm-194,161.41q0-8.79,6.09-14.06c4.07-3.52,10.14-5.29,18.27-5.29H569a31.16,31.16,0,0,1,17.44,5.29c5.34,3.51,8,8.2,8,14.06V828q0,7.92-6.38,14.08T569,848.19H422.86q-24.37,0-24.36-20.23Z"/>
  </g>
</svg>
