<svg xmlns="http://www.w3.org/2000/svg" viewBox="0 0 1000 1000">
  <defs>
    <style>
      .cls-1, .cls-2 {
        fill: none;
        stroke: #1c1d1b;
        stroke-miterlimit: 10;
      }

      .cls-1 {
        stroke-width: 50px;
      }

      .cls-2 {
        stroke-width: 25px;
      }
    </style>
  </defs>
  <g id="Fiole">
    <g id="Calque_13" data-name="Calque 13">
      <path class="cls-1" d="M683.83,547.38c13.47,150.2-97.26,308.45-247.58,296.35C307,833.34,177.54,718.83,139.9,596.16,95.66,452,237.28,313.27,387.48,299.8c68.85-6.17,140.07,24.58,140.07,24.58,17.77,54.68,57.9,93.91,122.75,116.05C650.3,440.43,679.28,496.64,683.83,547.38Z"/>
      <path class="cls-2" d="M646.58,428.66c14.55-4.54,255-144.57,183.49-23.34,0,0-70.64,101.66-12,175.44C881.2,611,864.31,682.09,864.31,682.09"/>
      <path class="cls-1" d="M529.7,332,699.52,128.68c71.11,5.43,113.26,35.52,117.33,98L647,430l-1.27-1.05,1.52-1.09"/>
      <rect class="cls-2" x="780.65" y="668.31" width="122.42" height="197.93" rx="29.69" transform="translate(180.49 -160.1) rotate(12.16)"/>
      <path class="cls-2" d="M370.5,564.11C392,584.53,407,518.92,435.06,526.45c35.06,9.41,55.78,45.75,46.27,81.16-11.88,44.27-57.05,70.62-100.88,58.85-54.78-14.71-87.15-71.49-72.3-126.82,18.57-69.17,89.14-110.34,157.62-91.95C465.77,447.69,343.35,538.36,370.5,564.11Z"/>
    </g>
  </g>
</svg>
