<svg xmlns="http://www.w3.org/2000/svg" viewBox="0 0 1000 1000">
  <defs>
    <style>
      .cls-1 {
        fill: none;
        stroke: #1b1b1b;
        stroke-miterlimit: 10;
        stroke-width: 50px;
      }
    </style>
  </defs>
  <g id="Important">
    <path class="cls-1" d="M396.16,162.81q0-18.8,27.06-18.81H566.85q24.3,0,24.31,18.81V623.66a17.15,17.15,0,0,1-6.08,13.46q-6.09,5.36-18.23,5.35H423.22q-8.3,0-17.67-5.13t-9.39-13.68Zm0,562a16.65,16.65,0,0,1,6.36-13.67q6.38-5.13,18-5.14H566.69a31.81,31.81,0,0,1,17.44,5.14c5.34,3.42,8,8,8,13.67V828.33q0,7.71-6.64,13.69c-4.44,4-10.7,6-18.83,6H420.52q-24.37,0-24.36-19.67Z"/>
  </g>
</svg>
