<svg id="Calque_1" data-name="Calque 1" xmlns="http://www.w3.org/2000/svg" viewBox="0 0 963.5 724.8">
  <defs>
    <style>
      .cls-1, .cls-2 {
        fill: none;
        stroke: #1c1d1b;
        stroke-miterlimit: 10;
      }

      .cls-1 {
        stroke-width: 50px;
      }

      .cls-2 {
        stroke-width: 25px;
      }
    </style>
  </defs>
  <g>
    <line class="cls-1" x1="209.1" y1="462.7" x2="88.8" y2="512.7"/>
    <path class="cls-1" d="M94.2,621.2a41.7,41.7,0,0,1,13.2-5.6,50,50,0,0,1,12.9-1.1L296,625.2a44.3,44.3,0,0,1,39.7,31l21.4,68.2c9.3,29.7-14,59.5-45,57.6L85.3,768.3c-31-1.9-50.6-34.4-37.7-62.7l29.6-65.1a43.8,43.8,0,0,1,17-19.3" transform="translate(-18.6 -103)"/>
  </g>
  <g>
    <path class="cls-1" d="M685.9,538.6a37.7,37.7,0,0,1,4.3-4.5c7.6-6.8,15.8-7.8,28-7.1L894,537.7a44.3,44.3,0,0,1,39.6,31L955,636.9a44.4,44.4,0,0,1-29,55.6,38.5,38.5,0,0,1-6.9,1.6" transform="translate(-18.6 -103)"/>
    <polyline class="cls-1" points="675.6 429.5 671.6 431.1 425.4 533.4"/>
    <line class="cls-1" x1="660" y1="690.4" x2="907.4" y2="589.6"/>
    <path class="cls-1" d="M430.7,641.9a45.6,45.6,0,0,1,13.3-5.5,41.9,41.9,0,0,1,12.8-1.1l175.8,10.6a44.3,44.3,0,0,1,39.6,31l21.4,68.3a44.1,44.1,0,0,1-15,48.2,43.7,43.7,0,0,1-30,9.3L421.9,789a44.3,44.3,0,0,1-37.7-62.6l29.5-65.2a43.8,43.8,0,0,1,17-19.3" transform="translate(-18.6 -103)"/>
  </g>
  <g>
    <path class="cls-1" d="M532.5,344.1a37.1,37.1,0,0,1,4.3-4.5c7.6-6.8,15.8-7.8,28-7l175.7,10.6a44.4,44.4,0,0,1,39.7,31l21.4,68.3a44.4,44.4,0,0,1-29,55.6,38.4,38.4,0,0,1-6.9,1.5" transform="translate(-18.6 -103)"/>
    <polyline class="cls-1" points="522.1 235 518.2 236.7 271.9 339"/>
    <line class="cls-1" x1="506.6" y1="496" x2="754" y2="395.1"/>
    <path class="cls-1" d="M277.3,447.4a45,45,0,0,1,13.2-5.5,42.8,42.8,0,0,1,12.9-1.1l175.8,10.6a44.5,44.5,0,0,1,39.6,31.1l21.4,68.2a44.4,44.4,0,0,1-45,57.6L268.4,594.5a44.4,44.4,0,0,1-37.7-62.6l29.6-65.1a44.1,44.1,0,0,1,17-19.4" transform="translate(-18.6 -103)"/>
  </g>
  <polygon class="cls-2" points="696 166.3 711.2 95.4 726.5 166.3 797.4 181.6 726.5 196.8 711.2 267.8 696 196.8 625 181.6 696 166.3"/>
  <polygon class="cls-2" points="853.7 247.6 860.1 218.1 866.4 247.6 895.9 253.9 866.4 260.2 860.1 289.7 853.7 260.2 824.2 253.9 853.7 247.6"/>
  <polygon class="cls-2" points="796.6 89 802.9 59.5 809.3 89 838.8 95.4 809.3 101.7 802.9 131.2 796.6 101.7 767.1 95.4 796.6 89"/>
</svg>
