<svg xmlns="http://www.w3.org/2000/svg" viewBox="0 0 1000 1000">
  <defs>
    <style>
      .cls-1 {
        fill: none;
        stroke: #1c1d1b;
        stroke-miterlimit: 10;
        stroke-width: 50px;
      }
    </style>
  </defs>
  <g id="Matériaux">
    <g>
      <line class="cls-1" x1="225.73" y1="512.43" x2="105.43" y2="562.41"/>
      <path class="cls-1" d="M105.43,562.41a44,44,0,0,1,12.85-1.11l175.77,10.64a44.36,44.36,0,0,1,39.66,31l21.39,68.22a44.37,44.37,0,0,1-45,57.56L83.35,715a44.37,44.37,0,0,1-37.73-62.63L75.2,587.25a44.43,44.43,0,0,1,30.23-24.84Z"/>
    </g>
    <g>
      <path class="cls-1" d="M684,485.34a38.79,38.79,0,0,1,4.26-4.51c7.6-6.8,15.83-7.78,28-7L892,484.43a44.37,44.37,0,0,1,39.66,31L953,583.67a44.29,44.29,0,0,1-35.88,57.2"/>
      <polyline class="cls-1" points="692.18 479.19 688.23 480.83 441.98 583.15"/>
      <polyline class="cls-1" points="676.62 740.17 923.92 639.34 924.01 639.3"/>
      <path class="cls-1" d="M676.62,740.17a43.87,43.87,0,0,1-30,9.3L419.9,735.76a44.38,44.38,0,0,1-37.73-62.64L411.75,608A44.37,44.37,0,0,1,442,583.15,43.67,43.67,0,0,1,454.83,582L630.6,592.68a44.34,44.34,0,0,1,39.66,31l21.39,68.22A44.28,44.28,0,0,1,676.62,740.17Z"/>
    </g>
    <g>
      <path class="cls-1" d="M530.54,290.89a39,39,0,0,1,4.26-4.52c7.6-6.79,15.83-7.77,28-7L738.56,290a44.34,44.34,0,0,1,39.66,31l21.38,68.22a44.43,44.43,0,0,1-29.1,55.67,43.33,43.33,0,0,1-6.78,1.53"/>
      <polyline class="cls-1" points="538.76 284.73 534.8 286.38 288.56 388.69"/>
      <polyline class="cls-1" points="523.19 545.72 770.5 444.88 770.58 444.85"/>
      <path class="cls-1" d="M523.19,545.72a43.85,43.85,0,0,1-30,9.29L266.47,541.3a44.37,44.37,0,0,1-37.72-62.64l29.58-65.14a44.2,44.2,0,0,1,17-19.32,44.42,44.42,0,0,1,26.1-6.62l175.77,10.64a44.34,44.34,0,0,1,39.65,31l21.39,68.23A44.27,44.27,0,0,1,523.19,545.72Z"/>
    </g>
  </g>
</svg>
