<svg id="Nourriture" xmlns="http://www.w3.org/2000/svg" viewBox="0 0 1000 1000">
  <defs>
    <style>
      .cls-1, .cls-2 {
        fill: none;
        stroke: #1d1d1b;
        stroke-miterlimit: 10;
      }

      .cls-1 {
        stroke-width: 50px;
      }

      .cls-2 {
        stroke-width: 75px;
      }
    </style>
  </defs>
  <circle class="cls-1" cx="230.2" cy="792.87" r="115.89"/>
  <path class="cls-1" d="M291.72,702.47a115.89,115.89,0,1,1,54.37,131.27"/>
  <path class="cls-1" d="M594.92,553.78a115.91,115.91,0,1,1,109.52,153.9q-5.85,0-11.54-.57"/>
  <path class="cls-1" d="M474.54,454.94a115.91,115.91,0,0,1,229.9,20.95q0,3.92-.26,7.76"/>
  <path class="cls-1" d="M480.35,635.36A115.9,115.9,0,1,1,519.43,770"/>
  <path class="cls-1" d="M363.81,345.47A115.93,115.93,0,0,1,586.7,364.66"/>
  <path class="cls-1" d="M223.5,331.38A115.92,115.92,0,1,1,444.16,263.1"/>
  <path class="cls-1" d="M162.41,702.47a115.85,115.85,0,1,1,193-67.57"/>
  <path class="cls-1" d="M325.19,531.44a115.92,115.92,0,0,1,227.48,41.43"/>
  <path class="cls-1" d="M191.29,521A115.9,115.9,0,1,1,394.2,444.48a117.37,117.37,0,0,1-.62,12.07"/>
  <path class="cls-2" d="M611,360s31.79-175.56,174-205.78"/>
  <path class="cls-2" d="M582.11,99.41S863,127.85,892,276.59"/>
</svg>
